<?xml version="1.0" standalone="no"?>
<!DOCTYPE svg PUBLIC "-//W3C//DTD SVG 1.1//EN" "http://www.w3.org/Graphics/SVG/1.1/DTD/svg11.dtd" >
<svg xmlns="http://www.w3.org/2000/svg">
<metadata>Generated by IcoMoon</metadata>
<defs>
<font id="icomoon" horiz-adv-x="1024">
<font-face units-per-em="1024" ascent="960" descent="-64" />
<missing-glyph horiz-adv-x="1024" />
<glyph unicode="&#x20;" horiz-adv-x="512" d="" />
<glyph unicode="&#xe900;" glyph-name="basketball" d="M848.8 789.6v0c-90.4 89.6-209.6 138.4-336.8 138.4s-246.4-48.8-336.8-138.4c-92.8-90.4-143.2-212-143.2-341.6v-1.6c0-128.8 51.2-249.6 143.2-340.8 90.4-88.8 209.6-137.6 336.8-137.6s246.4 48.8 336.8 138.4c92 90.4 143.2 211.2 143.2 340.8v0.8c0 129.6-50.4 251.2-143.2 341.6v0zM496.8 897.6v-436h-158.4c-3.2 119.2-49.6 231.2-132 316.8 80 74.4 182.4 116 290.4 119.2v0zM185.6 757.6c76.8-80.8 120-184.8 123.2-296h-247.2c4 111.2 47.2 216 124 296v0zM62.4 432h246.4c-4-110.4-47.2-213.6-123.2-293.6-76 80-120 183.2-123.2 293.6v0zM496.8-1.6c-108.8 3.2-210.4 45.6-290.4 119.2 81.6 85.6 128 196 132 314.4h158.4v-433.6zM527.2 897.6c108.8-3.2 210.4-45.6 290.4-119.2-82.4-85.6-128.8-197.6-132-316.8h-158.4v436zM527.2-1.6v433.6h158.4c4-118.4 50.4-228.8 132-314.4-80-74.4-182.4-116-290.4-119.2v0zM838.4 138.4c-76 80-119.2 183.2-123.2 293.6h246.4c-3.2-110.4-47.2-213.6-123.2-293.6v0zM715.2 461.6c3.2 111.2 46.4 215.2 123.2 296 76.8-80.8 120-184.8 123.2-296h-246.4z" />
<glyph unicode="&#xe901;" glyph-name="burger" d="M992 352c0 51.2-37.6 93.6-86.4 101.6v52.8c27.2 4.8 47.2 28 47.2 56 0 148.8-120.8 269.6-268.8 269.6h-344c-148 0-268.8-120.8-268.8-268.8 0-28 20.8-52 47.2-56v-52.8c-48.8-8.8-86.4-51.2-86.4-102.4 0-37.6 20-70.4 50.4-88.8-7.2-9.6-11.2-20.8-11.2-33.6v-46.4c0-65.6 53.6-119.2 119.2-119.2h643.2c65.6 0 119.2 53.6 119.2 119.2v46.4c0 12.8-4 24-11.2 33.6 30.4 18.4 50.4 51.2 50.4 88.8v0zM108.8 563.2c0 127.2 103.2 230.4 230.4 230.4h344c127.2 0 230.4-103.2 230.4-230.4 0-10.4-8.8-19.2-19.2-19.2h-766.4c-10.4 0-19.2 8.8-19.2 19.2v0zM156.8 455.2v50.4h711.2v-50.4h-711.2zM757.6 417.6l-61.6-61.6-61.6 61.6h123.2zM915.2 183.2c0-44.8-36.8-81.6-81.6-81.6h-643.2c-44.8 0-81.6 36.8-81.6 81.6v46.4c0 10.4 8.8 19.2 19.2 19.2h768c10.4 0 19.2-8.8 19.2-19.2v-46.4zM888.8 287.2h-753.6c-36 0-64.8 29.6-64.8 64.8 0 36 29.6 64.8 64.8 64.8h446.4l101.6-101.6c4-4 8.8-5.6 13.6-5.6s9.6 1.6 13.6 5.6l101.6 101.6h77.6c36 0 64.8-29.6 64.8-64.8-0.8-36-29.6-64.8-65.6-64.8v0zM344.8 735.2c0-10.4-8.8-19.2-19.2-19.2s-19.2 8.8-19.2 19.2c0 10.4 8.8 19.2 19.2 19.2s19.2-8.8 19.2-19.2v0zM717.6 735.2c0-10.4-8.8-19.2-19.2-19.2s-19.2 8.8-19.2 19.2c0 10.4 8.8 19.2 19.2 19.2s19.2-8.8 19.2-19.2v0zM468.8 735.2c0-10.4-8.8-19.2-19.2-19.2s-19.2 8.8-19.2 19.2c0 10.4 8.8 19.2 19.2 19.2s19.2-8.8 19.2-19.2v0zM592.8 735.2c0-10.4-8.8-19.2-19.2-19.2s-19.2 8.8-19.2 19.2c0 10.4 8.8 19.2 19.2 19.2 11.2 0 19.2-8.8 19.2-19.2v0z" />
<glyph unicode="&#xe902;" glyph-name="car-first-aid-kit" d="M838.4 722.4h-68v66.4c0 64-52 116-116 116h-284.8c-64 0-116-52-116-116v-66.4h-68c-84.8 0-153.6-68.8-153.6-152.8v-425.6c0-84.8 68.8-153.6 153.6-153.6h653.6c84.8 0 153.6 68.8 153.6 153.6v425.6c-0.8 84-69.6 152.8-154.4 152.8v0zM302.4 789.6c0 36.8 29.6 66.4 66.4 66.4h284.8c36.8 0 66.4-29.6 66.4-66.4v-66.4h-417.6v66.4zM942.4 144c0-57.6-46.4-104-104-104h-652.8c-57.6 0-104 46.4-104 104v425.6c0 57.6 46.4 104 104 104h653.6c57.6 0 104-46.4 104-104v-425.6zM676 449.6h-70.4v70.4c0 28-22.4 50.4-50.4 50.4h-85.6c-28 0-50.4-22.4-50.4-50.4v-70.4h-70.4c-28 0-50.4-22.4-50.4-50.4v-85.6c0-28 22.4-50.4 50.4-50.4h70.4v-70.4c0-28 22.4-50.4 50.4-50.4h85.6c28 0 50.4 22.4 50.4 50.4v70.4h70.4c28 0 50.4 22.4 50.4 50.4v85.6c0 28-22.4 50.4-50.4 50.4v0zM677.6 313.6c0-0.8-0.8-1.6-1.6-1.6h-95.2c-13.6 0-24.8-11.2-24.8-24.8v-95.2c0-0.8-0.8-1.6-1.6-1.6h-84.8c-0.8 0-1.6 0.8-1.6 1.6v96c0 13.6-11.2 24.8-24.8 24.8h-95.2c-0.8 0-1.6 0.8-1.6 1.6v84.8c0 0.8 0.8 1.6 1.6 1.6h95.2c13.6 0 24.8 11.2 24.8 24.8v95.2c0 0.8 0.8 1.6 1.6 1.6h85.6c0.8 0 1.6-0.8 1.6-1.6v-95.2c0-13.6 11.2-24.8 24.8-24.8h95.2c0.8 0 1.6-0.8 1.6-1.6v-85.6z" />
<glyph unicode="&#xe903;" glyph-name="Comment" d="M224.040 656.008h240c8.824 0 15.92 7.176 15.92 16.016 0 8.824-7.096 16.016-15.92 16.016h-240c-8.92 0-16.024-7.2-16.024-16.016 0-8.832 7.104-16.016 16.024-16.016v0zM768.016 559.992h-543.976c-8.92 0-16.024-7.184-16.024-16.024 0-8.816 7.104-15.92 16.024-15.92h543.984c8.824 0 16.016 7.104 16.016 15.92 0 8.84-7.2 16.024-16.024 16.024v0zM768.016 432.032h-543.976c-8.92 0-16.024-7.2-16.024-16.016 0-8.824 7.104-16.024 16.024-16.024h543.984c8.824 0 16.016 7.2 16.016 16.024 0 8.816-7.2 16.016-16.024 16.016v0zM895.984 896.008h-767.968c-52.040 0-96.016-43.976-96.016-96.016v-527.96c0-52.040 43.976-96.016 96.016-96.016h127.96v-160c0-6.64 4.064-12.576 10.24-14.92 1.88-0.696 3.824-1.096 5.784-1.096 4.456 0 8.76 1.88 11.88 5.24l155.216 170.784h456.88c52.040 0 96.016 43.976 96.016 96.016v527.952c0.008 52.040-43.976 96.016-96.008 96.016v0zM959.96 272.032c0-34.704-29.28-63.984-63.976-63.984h-429.144l57.264 66.56c5.8 6.64 5 16.8-1.64 22.576-6.704 5.704-16.784 4.92-22.56-1.72l-79.696-92.656-132.184-145.4v134.624c0 8.824-7.2 16.016-16.016 16.016h-143.992c-34.704 0-63.984 29.28-63.984 63.984v527.96c0 34.696 29.28 63.984 63.984 63.984h767.96c34.696 0 63.976-29.28 63.976-63.984v-527.96z" />
<glyph unicode="&#xe904;" glyph-name="Login" d="M102.832 19.672c11.512 0 23.024 4.392 31.8 13.176l45.728 45.736 97.408-97.408c8.784-8.784 20.288-13.168 31.8-13.168 11.504 0 23.016 4.392 31.8 13.168 17.56 17.56 17.56 46.040 0 63.6l-97.416 97.416 63.6 63.608 45.728-45.728c8.784-8.784 20.288-13.168 31.8-13.168s23.016 4.392 31.8 13.168c17.56 17.56 17.56 46.040 0 63.6l-45.728 45.728 178.384 178.416c44.272-31.376 96.992-48.352 152.344-48.352 70.584 0 136.952 27.488 186.864 77.4 49.92 49.912 77.408 116.272 77.408 186.864s-27.488 136.96-77.408 186.872c-49.904 49.912-116.272 77.4-186.856 77.4-70.592 0-136.952-27.488-186.864-77.4-49.912-49.92-77.4-116.28-77.4-186.872 0-55.352 16.968-108.056 48.328-152.32l-209.912-209.936c-0.096-0.096-0.2-0.176-0.296-0.272s-0.176-0.2-0.272-0.296l-126.504-126.52c-0.136-0.136-0.288-0.248-0.424-0.384s-0.248-0.288-0.384-0.432l-77.128-77.128c-17.56-17.56-17.56-46.040 0.008-63.6 8.776-8.784 20.28-13.168 31.792-13.168zM578.616 786.992c32.928 32.928 76.704 51.064 123.272 51.064 46.56 0 90.344-18.136 123.272-51.064 32.92-32.92 51.056-76.704 51.056-123.272s-18.136-90.344-51.056-123.264c-32.928-32.928-76.704-51.056-123.264-51.056s-90.344 18.136-123.264 51.056c-32.928 32.92-51.064 76.704-51.064 123.264-0.016 46.568 18.12 90.344 51.048 123.272z" />
<glyph unicode="&#xe905;" glyph-name="credit-card3" d="M152 433.6h120v-30.4h-120v30.4zM317.6 433.6h135.2v-30.4h-135.2v30.4zM496.8 433.6h135.2v-30.4h-135.2v30.4zM677.6 433.6h135.2v-30.4h-135.2v30.4zM152 358.4h480v-30.4h-480v30.4zM152 284h209.6v-30.4h-209.6v30.4zM152 508.8h89.6v-30.4h-89.6v30.4zM272 508.8h89.6v-30.4h-89.6v30.4zM872 508.8h-135.2v135.2h135.2v-135.2zM767.2 538.4h75.2v75.2h-75.2v-75.2zM911.2 748.8h-798.4c-44 0-80.8-36.8-80.8-81.6v-439.2c0-44.8 36.8-80.8 80.8-80.8h798.4c44.8 0 80.8 36.8 80.8 80.8v439.2c0 44.8-36 81.6-80.8 81.6zM911.2 176.8h-798.4c-28 0-51.2 23.2-51.2 51.2v340.8h660v30.4h-659.2v68.8c0 28 23.2 51.2 51.2 51.2h798.4c28 0 51.2-23.2 51.2-51.2v-68.8h-75.2v-30.4h75.2v-340c-0.8-28.8-24-52-52-52z" />
<glyph unicode="&#xe906;" glyph-name="delivery-truck" d="M207.2 296.8c-48 0-87.2-39.2-87.2-88s39.2-88 87.2-88c23.2 0 45.6 8.8 62.4 25.6s26.4 38.4 26.4 62.4c0 23.2-9.6 45.6-26.4 62.4-16.8 16-39.2 25.6-62.4 25.6v0zM207.2 160c-26.4 0-48 21.6-48 48.8s21.6 48.8 48 48.8c27.2 0 49.6-22.4 49.6-48.8s-22.4-48.8-49.6-48.8v0zM125.6 536.8c-4-4-6.4-8.8-6.4-14.4v-107.2c0-10.4 8.8-19.2 19.2-19.2h159.2c10.4 0 19.2 8.8 19.2 19.2v160c0 10.4-8.8 19.2-19.2 19.2h-100c-4.8 0-9.6-1.6-12.8-4.8l-59.2-52.8zM158.4 513.6l47.2 42.4h72.8v-121.6h-120v79.2zM684.8 296.8c-48 0-87.2-39.2-87.2-88s39.2-88 87.2-88c23.2 0 45.6 8.8 62.4 25.6s26.4 38.4 26.4 62.4c0 23.2-9.6 45.6-26.4 62.4-16.8 16-39.2 25.6-62.4 25.6v0zM684.8 160c-26.4 0-48 21.6-48 48.8s21.6 48.8 48 48.8c27.2 0 49.6-22.4 49.6-48.8s-23.2-48.8-49.6-48.8v0zM815.2 272.8c-10.4 0-19.2-8.8-19.2-19.2s8.8-19.2 19.2-19.2h59.2c10.4 0 19.2 8.8 19.2 19.2v71.2c0 10.4-8.8 19.2-19.2 19.2s-19.2-8.8-19.2-19.2v-52h-40zM716 379.2c0-11.2 8.8-19.2 19.2-19.2h236.8c10.4 0 19.2 8.8 19.2 19.2s-8.8 19.2-19.2 19.2h-236.8c-10.4 0-19.2-8.8-19.2-19.2v0zM932.8 449.6c10.4 0 19.2 8.8 19.2 20 0 10.4-8.8 19.2-19.2 19.2v0l-236.8-1.6c-10.4 0-19.2-8.8-19.2-20 0-10.4 8.8-19.2 20-19.2l236 1.6zM892.8 538.4c10.4 0 19.2 8.8 19.2 19.2s-8.8 19.2-19.2 19.2h-236.8c-10.4 0-19.2-8.8-19.2-19.2s8.8-19.2 19.2-19.2h236.8zM39.2 564.8c-4.8-4-7.2-9.6-7.2-15.2l1.6-296c0-10.4 8.8-19.2 19.2-19.2h40c10.4 0 19.2 8.8 19.2 19.2s-8.8 19.2-19.2 19.2h-20l-1.6 268 127.2 105.6h157.6v-373.6h-39.2c-10.4 0-19.2-8.8-19.2-19.2s8.8-19.2 19.2-19.2h238.4c10.4 0 19.2 8.8 19.2 19.2s-8.8 19.2-19.2 19.2h-160v463.2h459.2v-123.2c0-10.4 8.8-19.2 19.2-19.2s19.2 8.8 19.2 19.2v143.2c0 10.4-8.8 19.2-19.2 19.2h-497.6c-10.4 0-19.2-8.8-19.2-19.2v-70.4h-164.8c-4.8 0-8.8-1.6-12.8-4.8l-140-116z" />
<glyph unicode="&#xe907;" glyph-name="earth-globe" d="M857.6 330.4c47.2 80.8 60 174.4 35.2 264-24 89.6-81.6 164-163.2 210.4-109.6 62.4-239.2 59.2-343.2 4l-73.6 110.4c-6.4 9.6-19.2 12-28.8 5.6s-12-19.2-5.6-28.8l26.4-38.4c-87.2-60.8-148.8-149.6-174.4-252.8-27.2-109.6-9.6-223.2 48.8-320 57.6-96.8 150.4-166.4 260.8-196 27.2-7.2 55.2-12 83.2-13.6v-65.6h-128c-11.2 0-20.8-9.6-20.8-20.8s9.6-20.8 20.8-20.8h297.6c11.2 0 20.8 9.6 20.8 20.8s-9.6 20.8-20.8 20.8h-128v64.8c64 1.6 127.2 16.8 185.6 46.4l28.8-41.6c4-5.6 10.4-8.8 16.8-8.8 4 0 8 1.6 11.2 4 9.6 6.4 12 19.2 5.6 28.8l-73.6 107.2c48.8 28.8 89.6 69.6 118.4 120v0zM727.2 155.2c-182.4-88-408-23.2-512 151.2-106.4 176-56 399.2 112.8 516.8l24-35.2c-40.8-28-75.2-64.8-101.6-109.6-46.4-80-59.2-172.8-35.2-261.6 24-89.6 82.4-164.8 164-211.2 54.4-31.2 115.2-46.4 176-46.4 30.4 0 60 4 90.4 11.2 20 4.8 39.2 12 57.6 20.8l24-36zM555.2 200c-52.8 0-106.4 13.6-155.2 40.8-72 40.8-124 107.2-144.8 185.6s-9.6 159.2 31.2 229.6c56.8 98.4 161.6 153.6 268.8 153.6 52.8 0 105.6-13.6 155.2-40.8 71.2-40.8 122.4-106.4 143.2-184.8 21.6-79.2 10.4-161.6-31.2-232-56.8-97.6-160.8-152-267.2-152v0z" />
<glyph unicode="&#xe908;" glyph-name="signup" d="M735.203 802.423l125.575 125.575 93.767-93.767-125.575-125.575-93.767 93.767zM179.453 280.085l501.979 501.979 127.193-127.193-501.979-501.979-127.193 127.193zM142.432 243.032l-59.896-59.904-13.12-140.312 140.312 13.12 59.904 59.904zM882.776 654.88l-260.616-260.608 37.056-37.048 287.472 287.472-37.048 37.048zM69.416 8.232h736.528v-40.232h-736.528v40.232z" />
<glyph unicode="&#xe909;" glyph-name="menu-options" d="M73.152 715.432h877.712c22.632 0 41.136 18.52 41.136 41.136 0 22.632-18.504 41.152-41.136 41.152h-877.712c-22.632-0.008-41.152-18.52-41.152-41.152 0-22.616 18.52-41.136 41.152-41.136v0zM73.152 406.856h877.712c22.632 0 41.136 18.52 41.136 41.136 0 22.632-18.504 41.152-41.136 41.152h-877.712c-22.632 0-41.152-18.52-41.152-41.152 0-22.616 18.52-41.136 41.152-41.136v0zM73.152 98.288h877.712c22.632 0 41.136 18.52 41.136 41.136 0 22.632-18.504 41.152-41.136 41.152h-877.712c-22.632-0.008-41.152-18.528-41.152-41.16 0-22.616 18.52-41.128 41.152-41.128v0z" />
<glyph unicode="&#xe90a;" glyph-name="find-sale" d="M748.432 600.288c0 131.176-106.72 237.888-237.912 237.888-131.168 0-237.888-106.712-237.888-237.888s106.72-237.904 237.904-237.904 237.896 106.72 237.896 237.904v0zM313.768 600.288c0 108.496 88.264 196.768 196.768 196.768s196.768-88.264 196.768-196.768c0-108.488-88.264-196.768-196.768-196.768-108.496 0-196.768 88.264-196.768 196.768v0zM623.216 712.968c-8.024 8.032-21.048 8.032-29.080 0l-196.288-196.28c-8.032-8.032-8.032-21.056 0-29.080 4.016-4.016 9.28-6.024 14.552-6.024 5.256 0 10.52 2.008 14.536 6.024l196.288 196.28c8.024 8.032 8.024 21.040-0.008 29.080v0zM439.032 608.904c34.672 0 62.88 28.216 62.88 62.88s-28.216 62.88-62.88 62.88c-34.672 0-62.872-28.216-62.872-62.88-0.008-34.672 28.208-62.88 62.872-62.88v0zM439.032 693.536c11.992 0 21.744-9.752 21.744-21.752 0-11.992-9.752-21.752-21.744-21.752s-21.752 9.76-21.752 21.752c0.008 11.992 9.76 21.752 21.752 21.752v0zM582.032 591.656c-34.672 0-62.872-28.208-62.872-62.872 0-34.68 28.208-62.88 62.872-62.88s62.88 28.208 62.88 62.88c0 34.672-28.216 62.872-62.88 62.872v0zM582.032 507.040c-11.984 0-21.752 9.752-21.752 21.752 0 11.992 9.76 21.752 21.752 21.752s21.752-9.76 21.752-21.752c-0.008-12-9.76-21.752-21.752-21.752v0zM689.192 278.376c99.016 140.776 149.216 248.984 149.216 321.744 0 180.792-147.080 327.88-327.872 327.88s-327.88-147.088-327.88-327.88c0-72.824 50.288-181.152 149.456-322.080-150.296-19.416-298.72-67.36-298.72-149.496 0-47.888 51.424-88.912 148.704-118.648 88.416-27.016 205.576-41.896 329.896-41.896 124.328 0 241.488 14.88 329.896 41.896 97.296 29.736 148.72 70.768 148.72 118.648 0 82.664-149.8 130.616-301.416 149.832v0zM510.536 886.864c158.12 0 286.752-128.632 286.752-286.744 0-65.048-51.744-171.976-149.624-309.248-55.184-77.376-110.952-144.376-137.128-175.008-26.136 30.584-81.76 97.408-136.92 174.72-98.016 137.4-149.84 244.44-149.84 309.536 0.016 158.112 128.648 286.744 286.76 286.744v0zM511.992 9.136c-271.040 0-437.464 69.544-437.464 119.416 0 20.208 28.52 44.096 76.288 63.928 52 21.576 125.776 38.304 208.752 47.416 69.752-94.768 134.88-168.296 135.584-169.088 3.912-4.4 9.504-6.904 15.376-6.904s11.472 2.512 15.376 6.904c0.704 0.792 65.968 74.472 135.808 169.384 83.664-9 158.128-25.72 210.672-47.392 48.272-19.904 77.080-43.912 77.080-64.24 0.008-49.88-166.416-119.424-437.472-119.424v0z" />
<glyph unicode="&#xe90b;" glyph-name="gift" d="M780.808 742.072c18.216 19.592 29.576 46.248 29.576 75.632 0 61.32-48.984 110.296-108.336 110.296-45.072 0-148.904-67.392-190.44-127.928-42.904 60.536-146.352 125.968-189.656 125.968-59.168 0-108.336-48.976-108.336-110.296 0-28.408 10.576-54.080 27.624-73.472h-209.24v-263.512h57.208v-510.76h845.776v510.56h57.016v263.512h-211.192zM702.048 887.056c36.832 0 67.392-30.56 67.392-71.52 0-34.48-24.096-64.056-55.256-70.336h-165.744c-10.576 3.136-13.912 6.856-13.912 9.016 0 34.88 122.448 132.84 167.52 132.84v0zM321.952 887.056c42.912 0 167.52-97.96 167.52-132.84 0-3.128-7.248-6.656-12.544-9.016h-166.92c-31.152 6.28-55.248 35.856-55.248 70.336-0.2 38.992 30.568 71.52 67.192 71.52v0zM389.36 8.944h-259.4v469.616h259.4v-469.616zM389.36 517.352h-316.416v183.776h316.608v-183.768h-0.192zM593.504 8.944h-163.4v692.384h163.4v-692.384zM893.848 8.944h-259.4v469.616h259.4v-469.616zM950.856 517.352h-316.408v183.776h316.608v-183.768h-0.2z" />
<glyph unicode="&#xe90c;" glyph-name="sort-descending" d="M928.4 139.080h-384.040c-17.68 0-31.88-14.2-31.88-32.040 0-17.64 14.2-32 31.88-32l384.040 0.92c17.68 0 32.040 13.44 32.040 31.080 0 17.84-14.36 32.040-32.040 32.040v0zM480.44 843.92h447.96c17.68 0 32.040 14.4 32.040 32.040s-14.36 32.040-32.040 32.040h-447.96c-17.64 0-32.040-14.4-32.040-32.040s14.4-32.040 32.040-32.040v0zM534.36 322.36c-12.52 12.52-32.84 12.52-45.32 0l-168.6-194.040v779.68h-64.080v-780.8l-169.52 195.16c-12.48 12.52-32.96 12.52-45.48 0-12.48-12.64-12.48-33.12 0-45.64l222.2-255.6c6.72-6.72 15.64-9.68 24.36-9.24 8.76-0.44 17.52 2.52 24.24 9.24l222.2 255.6c12.64 12.52 12.64 33 0 45.64v0zM928.4 715.8h-447.96c-17.64 0-32.040-14.36-32.040-32.040 0-17.64 14.4-31.72 32.040-31.72h447.96c17.68 0 32.040 14.080 32.040 31.72 0 17.68-14.36 32.040-32.040 32.040v0zM928.4 523.6h-447.96c-17.64 0-32.040-14.36-32.040-32 0-17.84 14.4-31.56 32.040-31.56l447.96-0.48c17.68 0 32.040 14.2 32.040 32.040 0 17.64-14.36 32-32.040 32v0zM928.4 331.44h-255.92c-17.68 0-32.040-14.4-32.040-32.2 0-17.64 14.36-31.24 32.040-31.24h255.92c17.68 0 32.040 13.6 32.040 31.24 0 17.8-14.36 32.2-32.040 32.2v0z" />
<glyph unicode="&#xe90d;" glyph-name="google-plus" d="M768.080 488.992h-343.504v-114.496h209.568c-31.256-99.552-124.24-171.752-234.112-171.752-135.512 0-245.36 109.856-245.36 245.352 0 135.512 109.856 245.36 245.36 245.36 68.24 0 129.96-27.872 174.44-72.832l83.112 90.344c-66.384 65.040-157.264 105.168-257.552 105.168-203.248 0-368.032-164.768-368.032-368.040 0-203.256 164.784-368.040 368.040-368.040 178.056 0 333.944 126.448 368.040 294.424v114.512zM991.144 489.192h-70.272v70.256h-60.224v-70.256h-70.256v-60.224h70.256v-70.272h60.224v70.272h70.272v60.224z" />
<glyph unicode="&#xe90e;" glyph-name="home" d="M162.4 44c0 0-0.8-21.6 20-21.6 26.4 0 241.6 0 241.6 0v198.4c0 0-3.2 32.8 28.8 32.8h100c37.6 0 35.2-32.8 35.2-32.8v-197.6h236.8c26.4 0 25.6 26.4 25.6 26.4v366.4l-333.6 296.8-354.4-296.8v-372zM32 443.2c0 0 30.4-55.2 96 0l392 332 368-329.6c76-55.2 104.8 0 104.8 0l-472.8 428-488-430.4zM878.4 776h-94.4v-114.4l94.4-80v194.4z" />
<glyph unicode="&#xe90f;" glyph-name="home-phone" d="M199.2-32h-2.4c-78.4 0-142.4 64-142.4 142.4v675.2c-0.8 78.4 63.2 142.4 141.6 142.4h2.4c57.6 0 107.2-34.4 129.6-84h486.4c77.6 0 140-63.2 140-140v-502.4c0-82.4-67.2-148.8-148.8-148.8h-476.8c-22.4-50.4-72-84.8-129.6-84.8v0zM196 898.4c-62.4 0-112.8-50.4-112.8-112.8v-675.2c0-62.4 50.4-112.8 112.8-112.8h2.4c62.4 0 112.8 50.4 112.8 112.8v675.2c0 62.4-50.4 112.8-112.8 112.8h-2.4zM341.6 81.6h465.6c65.6 0 119.2 53.6 119.2 119.2v502.4c0 60.8-49.6 111.2-111.2 111.2h-473.6v-732.8zM754.4 202.4c-26.4 0-48 21.6-48 48s21.6 48 48 48c26.4 0 48-21.6 48-48 0.8-26.4-21.6-48-48-48v0zM754.4 269.6c-10.4 0-19.2-8.8-19.2-18.4 0.8-11.2 8.8-19.2 19.2-19.2s19.2 8.8 19.2 19.2c0 9.6-8.8 18.4-19.2 18.4v0zM633.6 202.4c-26.4 0-48 21.6-48 48s21.6 48 48 48c26.4 0 48-21.6 48-48 0.8-26.4-21.6-48-48-48v0zM633.6 269.6c-10.4 0-19.2-8.8-19.2-18.4 0-10.4 8.8-19.2 19.2-19.2s19.2 8.8 19.2 19.2c0 9.6-8.8 18.4-19.2 18.4v0zM512.8 202.4c-26.4 0-48 21.6-48 48s21.6 48 48 48c26.4 0 48-21.6 48-48s-21.6-48-48-48v0zM512.8 269.6c-10.4 0-19.2-8.8-19.2-18.4 0-10.4 8.8-19.2 19.2-19.2s18.4 8.8 18.4 19.2c0.8 9.6-8 18.4-18.4 18.4v0zM754.4 322.4c-26.4 0-48 21.6-48 48s21.6 48 48 48c26.4 0 48-21.6 48-48 0.8-26.4-21.6-48-48-48v0zM754.4 389.6c-10.4 0-19.2-8.8-19.2-19.2 0.8-10.4 8.8-18.4 19.2-18.4s19.2 8.8 19.2 19.2c0 9.6-8.8 18.4-19.2 18.4v0zM633.6 322.4c-26.4 0-48 21.6-48 48s21.6 48 48 48c26.4 0 48-21.6 48-48 0.8-26.4-21.6-48-48-48v0zM633.6 389.6c-10.4 0-19.2-8.8-19.2-19.2s8.8-19.2 19.2-19.2c10.4 0 19.2 8.8 19.2 19.2s-8.8 19.2-19.2 19.2v0zM512.8 322.4c-26.4 0-48 21.6-48 48s21.6 48 48 48c26.4 0 48-21.6 48-48s-21.6-48-48-48v0zM512.8 389.6c-10.4 0-19.2-8.8-19.2-19.2s8.8-19.2 19.2-19.2c10.4 0 18.4 8.8 18.4 19.2 0.8 10.4-8 19.2-18.4 19.2v0zM754.4 442.4c-26.4 0-48 21.6-48 48s21.6 48 48 48c26.4 0 48-21.6 48-48 0.8-26.4-21.6-48-48-48v0zM754.4 509.6c-10.4 0-19.2-8.8-19.2-19.2s8.8-19.2 19.2-19.2c10.4 0 19.2 8.8 19.2 19.2s-8.8 19.2-19.2 19.2v0zM633.6 442.4c-26.4 0-48 21.6-48 48s21.6 48 48 48c26.4 0 48-21.6 48-48 0.8-26.4-21.6-48-48-48v0zM633.6 509.6c-10.4 0-19.2-8.8-19.2-19.2s8.8-19.2 19.2-19.2c10.4 0 19.2 8.8 19.2 19.2s-8.8 19.2-19.2 19.2v0zM512.8 442.4c-26.4 0-48 21.6-48 48s21.6 48 48 48c26.4 0 48-21.6 48-48s-21.6-48-48-48v0zM512.8 509.6c-10.4 0-19.2-8.8-19.2-19.2s8.8-19.2 19.2-19.2c10.4 0 18.4 8.8 18.4 19.2 0.8 10.4-8 19.2-18.4 19.2v0zM858.4 634.4h-449.6c-8 0-14.4 6.4-14.4 14.4v94.4c0 8 6.4 14.4 14.4 14.4h398.4c36.8 0 66.4-29.6 66.4-66.4v-42.4c0-8-6.4-14.4-15.2-14.4v0zM423.2 664h420.8v28c0 20.8-16.8 36.8-36.8 36.8h-384v-64.8z" />
<glyph unicode="&#xe910;" glyph-name="hot-air-balloon" d="M795.2 747.2c-26.4 52.8-66.4 96.8-115.2 128-52 33.6-112.8 51.2-176 51.2s-124.8-17.6-176-51.2c-48.8-31.2-88.8-75.2-115.2-128s-39.2-110.4-35.2-168.8c4-61.6 25.6-120.8 63.2-172l72-98.4c67.2-92 103.2-200.8 103.2-315.2 0-15.2 12-27.2 27.2-27.2h123.2c15.2 0 27.2 12 27.2 27.2 0 114.4 36 223.2 103.2 315.2l72 98.4c37.6 51.2 59.2 111.2 63.2 172 2.4 58.4-9.6 116.8-36.8 168.8v0zM596.8 856c55.2-60.8 71.2-178.4 46.4-341.6-15.2-101.6-42.4-192-52.8-224.8h-59.2v579.2c0 0.8 0 1.6 0 2.4 22.4-2.4 44-7.2 64.8-14.4 0 0 0-0.8 0.8-0.8v0zM417.6 290.4c-10.4 32-37.6 122.4-52.8 224.8-24.8 162.4-8.8 280.8 46.4 341.6 0 0 0.8 0.8 0.8 0.8 20.8 7.2 42.4 12 64.8 14.4 0-0.8 0-1.6 0-2.4v-578.4h-59.2zM284 438.4c-62.4 84.8-70.4 191.2-23.2 284.8 16 31.2 36 57.6 60.8 80-44.8-136-9.6-327.2 20-443.2l-57.6 78.4zM468.8 20c-0.8 18.4-2.4 36.8-4.8 55.2h80c-2.4-18.4-4-36.8-4.8-55.2h-70.4zM554.4 129.6c-0.8 0-1.6 0-2.4 0h-96c-0.8 0-1.6 0-2.4 0-8.8 36.8-20.8 72-36.8 106.4h174.4c-16-34.4-28-69.6-36.8-106.4v0zM724 438.4l-57.6-78.4c29.6 115.2 65.6 307.2 20 443.2 24-22.4 44.8-48.8 60.8-80 47.2-93.6 38.4-200-23.2-284.8v0z" />
<glyph unicode="&#xe911;" glyph-name="instagram-logo" d="M727.072 928h-430.144c-146.096 0-264.928-118.84-264.928-264.928v-430.144c0-146.096 118.832-264.928 264.928-264.928h430.152c146.088 0 264.92 118.864 264.92 264.928v430.144c0 146.088-118.832 264.928-264.928 264.928v0zM906.824 232.928c0-99.12-80.624-179.752-179.752-179.752h-430.144c-99.12 0-179.752 80.624-179.752 179.752v430.144c0 99.12 80.624 179.752 179.752 179.752h430.152c99.12 0 179.752-80.632 179.752-179.752v-430.144zM512 695.344c-136.416 0-247.376-110.96-247.376-247.344 0-136.416 110.96-247.376 247.376-247.376 136.384 0 247.376 110.96 247.376 247.376 0 136.384-110.992 247.344-247.376 247.344v0zM512 285.824c-89.424 0-162.2 72.728-162.2 162.176 0 89.416 72.752 162.192 162.2 162.192s162.2-72.776 162.2-162.192c0-89.448-72.776-162.176-162.2-162.176v0zM769.752 767.576c-16.416 0-32.528-6.632-44.112-18.272-11.68-11.592-18.352-27.728-18.352-44.2 0-16.408 6.704-32.52 18.352-44.16 11.56-11.592 27.696-18.28 44.112-18.28 16.464 0 32.52 6.688 44.16 18.28 11.648 11.64 18.296 27.784 18.296 44.16 0 16.472-6.648 32.608-18.296 44.2-11.592 11.64-27.696 18.272-44.16 18.272v0z" />
<glyph unicode="&#xe912;" glyph-name="lifebuoy" d="M512 928c-264.8 0-480-215.2-480-480s215.2-480 480-480c264.8 0 480 215.2 480 480s-215.2 480-480 480v0zM512 241.6c-113.6 0-206.4 92.8-206.4 206.4s92.8 206.4 206.4 206.4c113.6 0 206.4-92.8 206.4-206.4s-92.8-206.4-206.4-206.4v0zM743.2 498.4h209.6c2.4 0 4 0.8 6.4 1.6 1.6-16.8 3.2-34.4 3.2-52 0-16.8-0.8-34.4-3.2-50.4-1.6 0.8-4 1.6-6.4 1.6h-209.6c3.2 16 5.6 32 5.6 49.6 0 16.8-2.4 33.6-5.6 49.6v0zM954.4 528c-0.8 0-1.6 0.8-1.6 0.8h-219.2c-24 66.4-76.8 118.4-143.2 142.4v220c0 0 0 0 0 0 184.8-32.8 331.2-178.4 364-363.2v0zM561.6 895.2c-0.8-1.6-0.8-3.2-0.8-4v-211.2c-16 3.2-32 4.8-48.8 4.8-17.6 0-35.2-2.4-51.2-5.6v212c0 1.6-0.8 2.4-0.8 4 17.6 1.6 34.4 3.2 52 3.2 16.8-0.8 32.8-1.6 49.6-3.2v0zM430.4 890.4v-220.8c-64.8-24-116.8-76-140.8-140.8 0 0 0 0 0 0h-220c32.8 183.2 177.6 328 360.8 361.6v0zM64.8 398.4c-1.6 16.8-3.2 32.8-3.2 49.6 0 17.6 0.8 34.4 3.2 51.2 0.8 0 2.4-0.8 3.2-0.8h212.8c-3.2-16-5.6-32.8-5.6-50.4 0-16.8 1.6-33.6 5.6-49.6h-212.8c-0.8 0-2.4 0-3.2 0v0zM68.8 368.8h220c23.2-65.6 75.2-118.4 140.8-142.4v-220c0 0 0-0.8 0-0.8-182.4 33.6-327.2 179.2-360.8 363.2v0zM459.2 0.8c0.8 1.6 0.8 3.2 0.8 5.6v211.2c16.8-4 33.6-5.6 51.2-5.6 16.8 0 32.8 1.6 48.8 4.8v-210.4c0-1.6 0-4 0.8-5.6-16-1.6-32.8-2.4-49.6-2.4-16.8-0.8-34.4 0.8-52 2.4v0zM590.4 4.8c0 0.8 0 0.8 0 1.6v219.2c67.2 24 120 76.8 144 143.2h218.4c0.8 0 1.6 0 2.4 0.8-32.8-185.6-180-332-364.8-364.8v0z" />
<glyph unicode="&#xe913;" glyph-name="lipstick-with-cover" d="M824.8 393.6h-25.6v36.8c0 12-9.6 20.8-20.8 20.8h-172.8c-12 0-20.8-9.6-20.8-20.8v-36.8h-25.6c-12 0-20.8-9.6-20.8-20.8v-331.2c0-40.8 32.8-73.6 73.6-73.6h161.6c40.8 0 73.6 32.8 73.6 73.6v331.2c-0.8 11.2-10.4 20.8-22.4 20.8v0zM627.2 409.6h129.6v-15.2h-129.6v15.2zM804 41.6c0-16.8-13.6-31.2-31.2-31.2h-161.6c-16.8 0-31.2 13.6-31.2 31.2v309.6h224v-309.6zM464.8 344h-25.6v311.2c0 12-9.6 20.8-20.8 20.8h-2.4v153.6c0 0.8 0 22.4-5.6 44-12 47.2-40 54.4-55.2 54.4-19.2 0-40-17.6-69.6-58.4-18.4-24.8-32.8-49.6-33.6-51.2-1.6-3.2-3.2-7.2-3.2-10.4v-132h-2.4c-12 0-20.8-9.6-20.8-20.8v-311.2h-25.6c-12 0-20.8-9.6-20.8-20.8v-281.6c0-40.8 32.8-73.6 73.6-73.6h161.6c40.8 0 73.6 32.8 73.6 73.6v280.8c-1.6 12-11.2 21.6-23.2 21.6v0zM291.2 802.4c24 40 53.6 77.6 64.8 83.2 10.4-2.4 16.8-34.4 16.8-56v-153.6h-81.6v126.4zM267.2 633.6h129.6v-289.6h-129.6v289.6zM444 41.6c0-16.8-13.6-31.2-31.2-31.2h-161.6c-16.8 0-31.2 13.6-31.2 31.2v260h224v-260z" />
<glyph unicode="&#xe914;" glyph-name="location74" d="M512 928c-179.2 0-324.8-145.6-324.8-324.8 0-72 42.4-181.6 133.6-344.8 62.4-111.2 124-205.6 126.4-209.6l44.8-68c4.8-7.2 12-11.2 20-11.2s16 4 20 11.2l44.8 68c2.4 4 64 96.8 126.4 209.6 91.2 163.2 133.6 272.8 133.6 344.8 0.8 179.2-145.6 324.8-324.8 324.8v0zM661.6 281.6c-61.6-110.4-122.4-202.4-124.8-206.4l-24-36.8-24 36.8c-2.4 4-63.2 96.8-124.8 206.4-85.6 151.2-128.8 259.2-128.8 321.6 0 152 124.8 276 276.8 276 152.8 0 276.8-124 276.8-276.8 0-61.6-43.2-169.6-127.2-320.8v0zM512 784.8c-99.2 0-180-80.8-180-180s80.8-180 180-180 180 80.8 180 180-80.8 180-180 180v0zM512 473.6c-72.8 0-131.2 59.2-131.2 131.2 0 72.8 59.2 131.2 131.2 131.2 72.8 0 131.2-59.2 131.2-131.2 0.8-72.8-58.4-131.2-131.2-131.2v0z" />
<glyph unicode="&#xe915;" glyph-name="logo_e" d="M904 272c-8-8-24-16-32-24-48-48-104-112-264-136-32-8-64-16-88-16-64 0-128 8-184 32-48 32-88 72-104 136 0 8 0 16 0 24v16l8 8c96 88 288 104 464 120 72 8 136 16 200 24-24 104-56 200-120 272-56 80-128 128-224 144l-16 8c-112 16-208-24-280-88s-112-160-136-264c0 0 0-8 0-16-24-120 0-232 56-312 56-96 144-152 248-176 48-8 96-16 152-8 72 0 144 16 200 56 56 32 96 80 112 160 8 8 8 24 8 40zM840 280c24 24 48 40 80 56l24 16 8-32c0-40 0-72-8-96-16-96-72-152-136-192s-144-56-224-64c-56 0-112 0-160 16-120 16-216 88-280 192-56 88-88 208-64 344 0 8 0 16 0 24 24 104 80 208 160 280 80 80 184 120 312 96h16c104-24 192-80 256-160 64-88 112-192 128-320v-16l-24-8c-64-16-144-24-224-32-160-16-336-32-424-104v-8c8-48 40-80 80-96 40-24 96-32 160-32 24 0 48 8 72 8 152 32 200 80 248 128zM728 520c-8 48-24 80-48 112-24 40-56 72-96 88-48 24-96 24-136 16-48-16-96-48-112-88-64-88-56-136-24-152 72-48 264-8 384 16l32 8zM720 664c32-48 48-96 56-160l8-16-24-8c-16 0-32-8-56-8-128-32-336-72-416-16-56 32-72 104 8 216 24 48 80 88 136 104s112 16 168-16c48-24 88-56 120-96z" />
<glyph unicode="&#xe916;" glyph-name="logout" d="M495.128 25.336h-249.864c-67.904 0-122.992 55.288-122.992 122.992v602.184c0 67.904 55.288 122.992 122.992 122.992h253.936c15.248 0 27.44 12.2 27.44 27.448s-12.192 27.448-27.44 27.448h-253.936c-98.2 0-177.888-79.904-177.888-177.888v-602.184c0-98.2 79.904-177.888 177.888-177.888h249.864c15.248 0 27.448 12.2 27.448 27.448s-12.408 27.448-27.448 27.448v0zM947.272 468.736l-174.432 174.44c-10.784 10.768-28.064 10.768-38.84 0-10.784-10.784-10.784-28.064 0-38.84l127.672-127.68h-556.832c-15.248 0-27.448-12.192-27.448-27.44s12.2-27.448 27.448-27.448h556.84l-127.672-127.68c-10.784-10.768-10.784-28.056 0-38.824 5.28-5.288 12.4-8.128 19.32-8.128 6.912 0 14.024 2.64 19.312 8.128l174.432 174.44c10.976 10.968 10.976 28.464 0.2 39.032v0z" />
<glyph unicode="&#xe917;" glyph-name="medal" d="M913.6 131.2l-139.2 244.8c14.4 6.4 22.4 21.6 21.6 38.4l-10.4 86.4 59.2 62.4c12.8 12.8 14.4 36 0.8 52l-59.2 64 12 88c1.6 19.2-11.2 37.6-30.4 41.6l-85.6 16.8-41.6 76c-8.8 17.6-29.6 25.6-48 17.6h-0.8l-79.2-36.8-77.6 37.6c-8.8 4.8-19.2 5.6-28 3.2-9.6-3.2-16.8-9.6-21.6-17.6l-41.6-76-85.6-15.2c-20-4-32.8-21.6-31.2-42.4l10.4-86.4-59.2-62.4c-12.8-12.8-14.4-36-0.8-52l59.2-64-12-88c-1.6-16.8 8.8-32.8 24.8-39.2l-140.8-248.8c-4-5.6-3.2-12.8 0-19.2 4-5.6 9.6-9.6 16-9.6h151.2l68.8-120c4-5.6 9.6-9.6 16-9.6s12.8 4 16 9.6l134.4 229.6 134.4-232.8c4-5.6 9.6-9.6 16-9.6s12.8 4 16 9.6l68.8 122.4h151.2c6.4 0 12.8 4 16 9.6 4 6.4 4 14.4 0 20v0zM360.8 30.4l-58.4 100.8c-4 5.6-9.6 9.6-16 9.6h-130.4l130.4 229.6 53.6-9.6 41.6-76c8.8-17.6 29.6-25.6 48-17.6h0.8l38.4 17.6 19.2-32.8-127.2-221.6zM415.2 300.8h-0.8l-41.6 78.4c-5.6 9.6-15.2 16.8-26.4 17.6l-86.4 16 12 87.2c1.6 11.2-1.6 23.2-9.6 31.2l-58.4 64 59.2 62.4c8.8 8.8 12 20 10.4 31.2l-10.4 85.6c0 0 0 0.8 0.8 1.6l85.6 15.2c10.4 1.6 20.8 8.8 26.4 19.2l42.4 76 77.6-38.4c10.4-5.6 23.2-5.6 33.6 0l78.4 36h0.8l41.6-78.4c5.6-9.6 15.2-16.8 25.6-17.6l85.6-16.8-12-86.4c-1.6-11.2 1.6-23.2 9.6-31.2l59.2-64-60-62.4c-8.8-8.8-12-20-10.4-31.2l10.4-86.4-84.8-14.4c-10.4-1.6-20.8-8.8-26.4-19.2l-42.4-76-77.6 37.6c-10.4 5.6-23.2 5.6-33.6 0l-78.4-36.8zM736 140.8c-6.4 0-12.8-4-16-9.6l-58.4-104-133.6 230.4c-0.8 3.2-1.6 4.8-4 6.4l-20 36.8 6.4 3.2 77.6-37.6c5.6-3.2 11.2-4 16.8-4 12.8 0 26.4 6.4 32.8 19.2l42.4 76 56.8 10.4 128.8-227.2h-129.6zM699.2 592.8c0 104-84.8 188.8-188.8 188.8s-188.8-84.8-188.8-188.8c0-104 84.8-188.8 188.8-188.8 104 0.8 188.8 85.6 188.8 188.8v0zM510.4 442.4c-83.2 0-150.4 67.2-150.4 150.4s67.2 151.2 150.4 151.2c83.2 0 151.2-68 151.2-151.2s-68-150.4-151.2-150.4v0z" />
<glyph unicode="&#xe918;" glyph-name="menu" d="M512 912c-64 0-116.8-52-116.8-116.8s52-116.8 116.8-116.8c64.8 0 116.8 52 116.8 116.8s-52.8 116.8-116.8 116.8v0zM512 727.2c-37.6 0-68.8 31.2-68.8 68.8s30.4 68.8 68.8 68.8c37.6 0 68.8-31.2 68.8-68.8 0-38.4-31.2-68.8-68.8-68.8v0zM875.2 912c-64 0-116.8-52-116.8-116.8s52-116.8 116.8-116.8c64.8 0 116.8 52 116.8 116.8s-52.8 116.8-116.8 116.8v0zM875.2 727.2c-37.6 0-68.8 31.2-68.8 68.8s30.4 68.8 68.8 68.8c37.6 0 68.8-31.2 68.8-68.8 0-38.4-31.2-68.8-68.8-68.8v0zM148.8 912c-64 0-116.8-52-116.8-116 0-64.8 52-116.8 116.8-116.8s116.8 52 116.8 116.8c0 64-52.8 116-116.8 116v0zM148.8 727.2c-37.6 0-68.8 31.2-68.8 68.8s31.2 68.8 68.8 68.8c37.6 0 68.8-31.2 68.8-68.8 0-38.4-31.2-68.8-68.8-68.8v0zM512 564.8c-64 0-116.8-52-116.8-116.8s52-116.8 116.8-116.8c64.8 0 116.8 52 116.8 116.8s-52.8 116.8-116.8 116.8v0zM512 379.2c-37.6 0-68.8 31.2-68.8 68.8s30.4 68.8 68.8 68.8c37.6 0 68.8-31.2 68.8-68.8s-31.2-68.8-68.8-68.8v0zM875.2 564.8c-64 0-116.8-52-116.8-116.8s52-116.8 116.8-116.8c64.8 0 116.8 52 116.8 116.8s-52.8 116.8-116.8 116.8v0zM875.2 379.2c-37.6 0-68.8 31.2-68.8 68.8s30.4 68.8 68.8 68.8c37.6 0 68.8-31.2 68.8-68.8s-31.2-68.8-68.8-68.8v0zM148.8 564.8c-64 0-116.8-52-116.8-116.8s52-116.8 116.8-116.8c64.8 0 116.8 52 116.8 116.8s-52.8 116.8-116.8 116.8v0zM148.8 379.2c-37.6 0-68.8 31.2-68.8 68.8s30.4 68.8 68.8 68.8c37.6 0 68.8-31.2 68.8-68.8s-31.2-68.8-68.8-68.8v0zM512 216.8c-64 0-116.8-52-116.8-116.8 0-64 52-116.8 116.8-116.8s116.8 52 116.8 116.8c0 64.8-52.8 116.8-116.8 116.8v0zM512 32c-37.6 0-68.8 31.2-68.8 68.8s30.4 68.8 68.8 68.8c37.6 0 68.8-31.2 68.8-68.8 0-38.4-31.2-68.8-68.8-68.8v0zM875.2 216.8c-64 0-116.8-52-116.8-116.8 0-64 52-116.8 116.8-116.8s116.8 52 116.8 116.8c0 64.8-52.8 116.8-116.8 116.8v0zM875.2 32c-37.6 0-68.8 31.2-68.8 68.8s30.4 68.8 68.8 68.8c37.6 0 68.8-31.2 68.8-68.8 0-38.4-31.2-68.8-68.8-68.8v0zM148.8 216.8c-64 0-116.8-52-116.8-116.8 0-64 52-116.8 116.8-116.8s116.8 52 116.8 116.8c0 64.8-52.8 116.8-116.8 116.8v0zM148.8 32c-37.6 0-68.8 31.2-68.8 68.8s30.4 68.8 68.8 68.8c37.6 0 68.8-31.2 68.8-68.8 0-38.4-31.2-68.8-68.8-68.8v0z" />
<glyph unicode="&#xe919;" glyph-name="organization" d="M379.2 777.6v-217.6c0-13.6 10.4-24 24-24h84.8v-65.6h-323.2c-13.6 0-24-10.4-24-24v-86.4h-84.8c-13.6 0-24-10.4-24-24v-217.6c0-13.6 10.4-24 24-24h217.6c13.6 0 24 10.4 24 24v217.6c0 13.6-10.4 24-24 24h-84.8v62.4h299.2v-62.4h-84.8c-13.6 0-24-10.4-24-24v-217.6c0-13.6 10.4-24 24-24h217.6c13.6 0 24 10.4 24 24v217.6c0 13.6-10.4 24-24 24h-84.8v62.4h299.2v-62.4h-84.8c-13.6 0-24-10.4-24-24v-217.6c0-13.6 10.4-24 24-24h217.6c13.6 0 24 10.4 24 24v217.6c0 13.6-10.4 24-24 24h-84.8v86.4c0 13.6-10.4 24-24 24h-323.2v65.6h84.8c13.6 0 24 10.4 24 24v217.6c0 13.6-10.4 24-24 24h-217.6c-12.8 0-24-11.2-24-24v0zM249.6 143.2h-169.6v169.6h169.6v-169.6zM596.8 143.2h-169.6v169.6h169.6v-169.6zM944 143.2h-169.6v169.6h169.6v-169.6zM427.2 753.6h169.6v-169.6h-169.6v169.6z" />
<glyph unicode="&#xe91a;" glyph-name="padlock" d="M752 508v180c0 132-108 240-240 240-132.8 0-240-108-240-240v-180c-49.6 0-89.6-40.8-89.6-90.4v-360c0-49.6 40.8-90.4 89.6-90.4h480c49.6 0 90.4 40.8 90.4 90.4v360c0 50.4-40.8 90.4-90.4 90.4v0zM332 688c0 99.2 80.8 180 180 180s180-80.8 180-180v-180h-360v180zM781.6 58.4c0-16.8-13.6-30.4-30.4-30.4h-479.2c-16 0-29.6 13.6-29.6 30.4v360c0 16.8 13.6 30.4 29.6 30.4h480c16.8 0 30.4-13.6 30.4-30.4v-360zM542.4 260v68c0 16.8-13.6 30.4-30.4 30.4s-30.4-13.6-30.4-30.4v-68c-17.6-10.4-30.4-29.6-30.4-52 0-32.8 27.2-60 60-60s60 27.2 60 60c0.8 22.4-11.2 41.6-28.8 52v0z" />
<glyph unicode="&#xe91b;" glyph-name="percentage" d="M654.224 649.328c-1.056 3.52-3.84 8.432-10.992 12-3.52 1.728-7.008 2.624-10.432 2.624-5.36 0-13.056-2.16-19.056-12.368l-238.192-381.664c-4.352-6.368-5.952-12.512-4.752-18.24 0.752-3.568 3.024-8.72 9.68-12.896 3.584-2.208 7.312-3.328 11.056-3.328 7.2 0 13.68 3.936 19.648 12.192l240.176 384.384c3.52 6.144 4.48 11.952 2.864 17.296zM471.424 474.72c19.6 19.168 29.504 42.992 29.504 70.784 0 28.080-9.728 52.080-28.976 71.344-19.152 18.752-42.912 28.32-70.672 28.32-28.128 0-52.080-9.568-71.344-28.448-18.8-19.168-28.32-43.168-28.32-71.2 0-27.744 9.728-51.568 28.848-70.64 19.2-19.6 43.008-29.584 70.8-29.584 27.44-0.016 51.088 9.968 70.16 29.424zM401.296 594.768c14.112 0 25.68-4.592 35.44-14.064 10.032-9.696 14.912-21.376 14.912-35.712 0-13.648-4.88-24.992-15.040-34.832-10.080-10.128-21.616-15.008-35.296-15.008-14.368 0-26.064 4.88-35.792 14.96-9.44 9.696-14.032 21.088-14.032 34.88 0 14.48 4.592 26.208 13.968 35.856 9.344 9.376 21.056 13.92 35.84 13.92zM628.976 453.904c-28.096 0-52.048-9.568-71.2-28.32-19.248-18.848-28.992-42.656-28.992-70.832 0-27.744 9.728-51.568 28.928-70.736 19.52-19.504 43.504-29.44 71.28-29.44 27.792 0 51.616 9.936 70.736 29.44 19.2 19.216 28.928 42.992 28.928 70.736 0 28.128-9.744 51.936-28.992 70.832-19.168 18.752-42.96 28.32-70.688 28.32zM628.976 304.464c-13.968 0-25.504 4.88-35.344 15.008-9.728 9.696-14.464 21.28-14.464 35.296 0 14.112 4.592 25.728 13.92 35.344 9.744 9.744 21.488 14.48 35.888 14.48 14.032 0 25.6-4.736 35.44-14.576 9.664-9.376 14.368-20.912 14.368-35.248 0-14.016-4.736-25.552-14.56-35.392-9.744-10.032-21.28-14.912-35.248-14.912zM982.592 476.528l-41.936 56.736 17.040 68.464c5.088 20.464-3.76 41.856-21.84 52.72l-60.464 36.368-10.464 69.776c-3.12 20.848-19.504 37.232-40.352 40.352l-69.776 10.464-36.368 60.464c-8.816 14.672-24.576 23.264-41.12 23.264-3.84 0-7.744-0.464-11.6-1.424l-68.464-17.040-56.736 41.936c-8.464 6.256-18.48 9.392-28.512 9.392s-20.048-3.136-28.528-9.392l-56.736-41.936-68.464 17.040c-3.856 0.96-7.744 1.424-11.6 1.424-16.56 0-32.304-8.608-41.136-23.264l-36.368-60.464-69.76-10.464c-20.848-3.12-37.216-19.504-40.352-40.352l-10.464-69.776-60.464-36.368c-18.064-10.864-26.928-32.256-21.84-52.72l17.040-68.464-41.936-56.736c-12.528-16.96-12.528-40.112 0-57.072l41.936-56.736-17.040-68.464c-5.088-20.464 3.76-41.856 21.84-52.72l60.464-36.368 10.464-69.776c3.12-20.848 19.504-37.232 40.352-40.352l69.76-10.464 36.368-60.464c8.816-14.672 24.576-23.264 41.136-23.264 3.84 0 7.728 0.464 11.6 1.424l68.464 17.040 56.736-41.936c8.48-6.24 18.496-9.376 28.528-9.376s20.048 3.136 28.528 9.392l56.736 41.936 68.464-17.040c3.856-0.96 7.744-1.424 11.6-1.424 16.56 0 32.304 8.608 41.12 23.264l36.368 60.464 69.776 10.464c20.848 3.12 37.232 19.488 40.352 40.352l10.464 69.776 60.464 36.368c18.064 10.864 26.928 32.256 21.84 52.72l-17.040 68.464 41.936 56.736c12.528 16.944 12.528 40.112-0.016 57.056zM888.624 373.088l22.496-90.4-79.824-48.016-13.824-92.128-92.128-13.808-48.016-79.84-90.4 22.496-74.928-55.392-74.912 55.376-90.4-22.496-48.016 79.84-92.128 13.808-13.808 92.128-79.824 48.016 22.496 90.4-55.408 74.928 55.376 74.912-22.496 90.4 79.824 48.016 13.808 92.128 92.128 13.808 48.016 79.84 90.4-22.496 74.944 55.392 74.912-55.376 90.4 22.496 48.016-79.84 92.128-13.808 13.824-92.128 79.824-48.016-22.496-90.4 55.392-74.928-55.376-74.912zM512 784c-185.264 0-336-150.72-336-336s150.736-336 336-336 336 150.72 336 336-150.736 336-336 336zM512 160c-159.056 0-288 128.944-288 288s128.944 288 288 288 288-128.944 288-288-128.944-288-288-288z" />
<glyph unicode="&#xe91c;" glyph-name="planet-earth" d="M918.4 731.2c-24 0-45.6-6.4-64.8-18.4v101.6c0 36-28.8 64.8-64.8 64.8-12 0-22.4-3.2-32-8.8-4 32-31.2 56.8-64 56.8-36 0-64.8-28.8-64.8-64.8v-35.2c-36 14.4-75.2 22.4-116 22.4s-80-8-116-22.4v35.2c0 36-28.8 64.8-64.8 64.8-32.8 0-60.8-24.8-64-56.8-9.6 5.6-20 8.8-32 8.8-36 0-64.8-28.8-64.8-64.8v-102.4c-19.2 12-40.8 18.4-64.8 18.4-20 0-35.2-16-35.2-35.2v-415.2c0-22.4 7.2-43.2 20-60.8l112-152.8v-80.8c0-8.8 7.2-16.8 16.8-16.8s16.8 7.2 16.8 16.8v86.4c0 3.2-0.8 7.2-3.2 9.6l-116 156.8c-8.8 12-13.6 26.4-13.6 41.6v415.2c0 1.6 0.8 2.4 2.4 2.4 50.4 0 90.4-40.8 90.4-90.4v-133.6c0-8.8 7.2-16.8 16.8-16.8 103.2 0 188-84 188-188v-54.4c0-8.8 7.2-16.8 16.8-16.8s16.8 7.2 16.8 16.8v13.6c20-4.8 40.8-8 61.6-9.6v-234.4c0-8.8 7.2-16.8 16.8-16.8 8.8 0 16.8 7.2 16.8 16.8v235.2c20.8 0.8 41.6 4 61.6 9.6v-13.6c0-8.8 7.2-16.8 16.8-16.8 8.8 0 16.8 7.2 16.8 16.8v54.4c0 103.2 84 188 188 188 8.8 0 16.8 7.2 16.8 16.8v132.8c0 50.4 40.8 90.4 90.4 90.4 1.6 0 2.4-0.8 2.4-2.4v-415.2c0-15.2-4.8-29.6-13.6-41.6l-116.8-157.6c-2.4-3.2-3.2-6.4-3.2-9.6v-86.4c0-8.8 7.2-16.8 16.8-16.8 8.8 0 16.8 7.2 16.8 16.8v80.8l112 152.8c12.8 17.6 20 39.2 20 60.8v416c0 20-16 36-36 36zM299.2 814.4v48.8c0 17.6 14.4 31.2 31.2 31.2 17.6 0 31.2-14.4 31.2-31.2v-50.4c-23.2-12-44-27.2-63.2-44.8v46.4zM203.2 683.2v131.2c0 17.6 14.4 31.2 31.2 31.2 17.6 0 31.2-14.4 31.2-31.2v-81.6c-19.2-24-35.2-50.4-46.4-78.4-4 10.4-9.6 20-16 28.8zM232.8 489.6c-1.6 9.6-2.4 19.2-3.2 28.8h86.4c0.8-19.2 2.4-37.6 4.8-56-26.4 14.4-56 24-88 27.2zM316 551.2h-86.4c3.2 60 25.6 115.2 60.8 159.2 13.6-13.6 28.8-25.6 44.8-36.8-11.2-37.6-17.6-79.2-19.2-122.4zM312.8 735.2c24.8 24.8 54.4 44.8 86.4 58.4-12.8-14.4-24.8-31.2-35.2-50.4-6.4-11.2-12-24-16.8-36.8-12 8.8-23.2 18.4-34.4 28.8zM495.2 252.8c-20.8 1.6-41.6 4.8-61.6 10.4v6.4c0 44.8-13.6 87.2-36.8 121.6 31.2 13.6 64.8 21.6 98.4 24v-162.4zM495.2 448.8c-41.6-2.4-82.4-12.8-119.2-30.4-4.8 5.6-10.4 11.2-16 16-6.4 27.2-9.6 55.2-10.4 84h145.6v-69.6zM495.2 551.2h-145.6c1.6 36.8 6.4 72.8 16 105.6 40-20.8 84-33.6 130.4-36v-69.6zM495.2 654.4v0c-42.4 2.4-83.2 14.4-120 34.4 5.6 13.6 11.2 27.2 17.6 39.2 27.2 49.6 63.2 81.6 101.6 88v-161.6zM661.6 863.2c0 17.6 14.4 31.2 31.2 31.2s31.2-14.4 31.2-31.2v-95.2c-19.2 17.6-40 32-63.2 44.8v50.4zM528.8 816c38.4-7.2 74.4-38.4 101.6-88 6.4-12 12.8-24.8 17.6-39.2-36.8-20-77.6-32-120-34.4l0.8 161.6zM590.4 269.6v-6.4c-20-5.6-40.8-9.6-61.6-10.4v162.4c34.4-2.4 67.2-10.4 98.4-24-23.2-35.2-36.8-76.8-36.8-121.6zM664 434.4c-5.6-4.8-11.2-10.4-16-16-37.6 17.6-77.6 28-119.2 30.4v69.6h145.6c-0.8-29.6-4-57.6-10.4-84zM528.8 551.2v69.6c45.6 2.4 90.4 15.2 130.4 36 9.6-32.8 14.4-68.8 16-105.6h-146.4zM676.8 706.4c-4.8 12.8-11.2 25.6-16.8 36.8-10.4 19.2-22.4 36-35.2 50.4 32.8-14.4 61.6-34.4 86.4-58.4-11.2-10.4-22.4-20-34.4-28.8zM791.2 489.6c-32-3.2-61.6-12.8-88-27.2 2.4 18.4 4 36.8 4.8 56h86.4c-0.8-9.6-1.6-19.2-3.2-28.8zM708 551.2v0c-1.6 43.2-8 84.8-20 123.2 16 10.4 31.2 23.2 44.8 36.8 35.2-44 57.6-99.2 60.8-159.2h-85.6zM820.8 683.2c-6.4-8.8-12-18.4-16.8-28-12 28.8-27.2 55.2-46.4 78.4v80.8c0 17.6 14.4 31.2 31.2 31.2 17.6 0 31.2-14.4 31.2-31.2l0.8-131.2z" />
<glyph unicode="&#xe91d;" glyph-name="shopping-bag-(1)" d="M888 713.6h-152c-4.8 118.4-104 214.4-224 214.4s-219.2-96-224-214.4h-155.2l-69.6-745.6h897.6l-72.8 745.6zM512 880c93.6 0 171.2-74.4 176-166.4h-352c4.8 92 82.4 166.4 176 166.4v0zM179.2 664.8h108.8v-100.8h48v100.8h352v-100.8h48v100.8h112l62.4-648.8h-794.4l63.2 648.8z" />
<glyph unicode="&#xe91e;" glyph-name="shopping-cart-(1)" d="M498.44 239.28c-56.704 0-102.92-46.216-102.92-102.944 0-56.704 46.216-102.8 102.92-102.8 56.736 0 102.832 46.096 102.832 102.8 0 56.728-46.096 102.944-102.832 102.944v0zM498.44 79.176c-31.584 0-57.16 25.696-57.16 57.16 0 31.496 25.576 57.16 57.16 57.16 31.496 0 57.16-25.664 57.16-57.16 0.008-31.472-25.664-57.16-57.16-57.16v0zM792.28 239.28c-56.704 0-102.92-46.216-102.92-102.944 0-56.704 46.216-102.8 102.92-102.8 56.728 0 102.832 46.096 102.832 102.8 0 56.728-46.104 102.944-102.832 102.944v0zM792.28 79.176c-31.584 0-57.16 25.696-57.16 57.16 0 31.496 25.576 57.16 57.16 57.16 31.496 0 57.16-25.664 57.16-57.16 0-31.472-25.672-57.16-57.16-57.16v0zM987.104 687.848c-4.256 5.6-10.944 8.832-17.976 8.832h-687.264l-63.736 148.928c-0.112 0.432-0.456 0.888-0.688 1.344-0.544 1.432-1.232 2.768-2.112 4.112-0.656 1.232-1.344 2.456-2.344 3.568-0.888 1.112-2 1.912-3.232 2.8-1.112 0.888-2.232 1.776-3.576 2.456-1.344 0.544-2.688 0.888-4.032 1.344-1.568 0.432-3 0.768-4.576 0.888-0.576 0-1 0.344-1.576 0.344h-141.096c-12.64 0.008-22.896-10.28-22.896-22.888 0-12.632 10.256-22.896 22.896-22.896h123.712l63.504-148.592 114.32-377.232c2.576-10.176 11.744-17.432 22.232-17.432h504.728c10.488 0 19.664 7.144 22.208 17.432l85.744 377.456c1.68 6.816 0.104 13.96-4.24 19.536v0zM865.528 319.216h-468.888l-103.056 331.672h646.4l-74.456-331.672z" />
<glyph unicode="&#xe91f;" glyph-name="shopping-cart" d="M986.4 716c-5.6 6.4-13.6 10.4-21.6 10.4h-704l-30.4 118.4c-3.2 12-14.4 20.8-26.4 20.8h-144c-15.2 0-28-12-28-28 0-15.2 12-28 28-28h122.4l30.4-118.4 108-416.8c3.2-12 14.4-20.8 26.4-20.8h508.8c12.8 0 23.2 8.8 26.4 20.8l108 416.8c3.2 9.6 0.8 18.4-4 24.8v0zM466.4 310.4h-97.6l-21.6 83.2h119.2v-83.2zM466.4 448.8h-133.6l-21.6 84h155.2v-84zM466.4 588h-169.6l-21.6 83.2h192v-83.2zM681.6 310.4h-159.2v83.2h159.2v-83.2zM681.6 448.8h-159.2v84h159.2v-84zM681.6 588h-159.2v83.2h159.2v-83.2zM834.4 310.4h-97.6v83.2h119.2l-21.6-83.2zM870.4 448.8h-133.6v84h155.2l-21.6-84zM907.2 588h-170.4v83.2h192l-21.6-83.2zM420.8 232c-56 0-100.8-45.6-100.8-100.8 0-56 45.6-100.8 100.8-100.8 56 0 100.8 45.6 100.8 100.8 0.8 56-44.8 100.8-100.8 100.8v0zM420.8 85.6c-25.6 0-45.6 20.8-45.6 45.6 0 25.6 20.8 45.6 45.6 45.6s45.6-20.8 45.6-45.6c0-24.8-20-45.6-45.6-45.6v0zM782.4 232c-56 0-100.8-45.6-100.8-100.8 0-56 45.6-100.8 100.8-100.8 56 0 100.8 45.6 100.8 100.8 0.8 56-44.8 100.8-100.8 100.8v0zM782.4 85.6c-24.8 0-45.6 20.8-45.6 45.6 0 25.6 20.8 45.6 45.6 45.6 25.6 0 45.6-20.8 45.6-45.6s-20-45.6-45.6-45.6v0z" />
<glyph unicode="&#xe920;" glyph-name="shopping-cart_L" d="M37.776 716.088c-5.24-6.776-7.048-15.6-4.88-23.88l108.376-416.648c3.168-12.192 14.168-20.712 26.76-20.712h508.312c12.608 0 23.608 8.52 26.784 20.712l139.104 534.88h122.112c15.272 0 27.664 12.384 27.664 27.664 0 15.272-12.392 27.664-27.664 27.664h-143.512c-12.608 0-23.608-8.504-26.784-20.712l-30.72-118.208h-703.672c-8.576-0.008-16.64-3.992-21.88-10.76v0zM557.256 393.712h119.432l-21.736-83.544h-97.696v83.544zM557.256 532.648h155.56l-21.736-83.616h-133.824v83.616zM557.256 671.512h191.68l-21.736-83.536h-169.944v83.536zM342.44 393.712h159.488v-83.544h-159.488v83.544zM342.44 532.648h159.488v-83.616h-159.488v83.616zM342.44 671.512h159.488v-83.544h-159.488v83.544zM167.688 393.712h119.432v-83.544h-97.696l-21.736 83.544zM131.544 532.648h155.576v-83.616h-133.816l-21.76 83.616zM95.416 671.512h191.704v-83.544h-169.96l-21.744 83.544zM602.96 232.336c-55.704 0-101.032-45.328-101.032-101.032 0-55.72 45.328-101.064 101.032-101.064 55.72 0 101.048 45.344 101.048 101.064 0 55.704-45.328 101.032-101.048 101.032v0zM602.96 85.568c-25.208 0-45.704 20.512-45.704 45.744 0 25.192 20.512 45.704 45.704 45.704 25.216 0 45.728-20.496 45.728-45.704-0.008-25.216-20.52-45.744-45.728-45.744v0zM241.416 232.336c-55.72 0-101.048-45.328-101.048-101.032 0-55.72 45.328-101.064 101.048-101.064 55.704 0 101.032 45.344 101.032 101.064-0.008 55.704-45.328 101.032-101.032 101.032v0zM241.416 85.568c-25.208 0-45.728 20.512-45.728 45.744 0 25.192 20.512 45.704 45.728 45.704 25.192 0 45.704-20.496 45.704-45.704 0-25.216-20.512-45.744-45.704-45.744v0z" />
<glyph unicode="&#xe921;" glyph-name="shopping-cart_main" d="M51.768 716.664c-14.632 0-22.976-11.384-18.616-25.368l77.128-265.616c4.36-13.992 19.824-25.296 34.472-25.296h367.024c14.632 0 30.112 11.312 34.448 25.296l88.552 259.408c5.456 17.424-4.904 31.584-23.168 31.584l-559.84-0.008zM477.24 101.52c0 46.208 37.512 83.72 83.72 83.72 46.232 0 83.744-37.512 83.744-83.72s-37.512-83.72-83.744-83.72c-46.208 0-83.72 37.512-83.72 83.72v0zM122.896 100.496c0 46.208 37.512 83.72 83.72 83.72s83.72-37.512 83.72-83.72c0-46.304-37.512-83.816-83.72-83.816-46.208 0.008-83.72 37.512-83.72 83.816v0zM106.040 315.192c-26.128 0-47.424-21.312-47.424-47.416 0-26.224 21.288-47.416 47.424-47.416h557.272l196.056 564.12h85.216c26.2 0 47.416 21.2 47.416 47.416 0 26.2-21.216 47.416-47.416 47.416h-152.64l-196.064-564.12h-489.84z" />
<glyph unicode="&#xe922;" d="M925.896-32h-827.792c-36.36 0-66.104 29.744-66.104 66.104v827.792c0 36.36 29.744 66.104 66.104 66.104h827.8c36.352 0 66.096-29.744 66.096-66.104v-827.8c0-36.352-29.744-66.096-66.104-66.096z" />
<glyph unicode="&#xe923;" d="M919-24h-814c-35.752 0-65 29.248-65 65v814c0 35.752 29.248 65 65 65h814c35.752 0 65-29.248 65-65v-814c0-35.752-29.248-65-65-65z" />
<glyph unicode="&#xe924;" d="M825.4 615.024c-8.824 8.824-23.176 8.824-31.976 0l-281.144-281.68-281.672 281.68c-8.832 8.824-23.184 8.824-31.976 0-8.824-8.8-8.824-23.144 0-31.976l297.104-297.104c4.416-4.408 9.936-6.624 15.984-6.624 5.52 0 11.576 2.208 15.992 6.624l297.128 297.104c9.36 8.832 9.36 23.176 0.56 31.976v0z" />
<glyph unicode="&#xe925;" d="M925.896-32h-827.792c-36.36 0-66.104 29.744-66.104 66.104v827.792c0 36.36 29.744 66.104 66.104 66.104h827.8c36.352 0 66.096-29.744 66.096-66.104v-827.8c0-36.352-29.744-66.096-66.104-66.096z" />
<glyph unicode="&#xe926;" d="M919-24h-814c-35.752 0-65 29.248-65 65v814c0 35.752 29.248 65 65 65h814c35.752 0 65-29.248 65-65v-814c0-35.752-29.248-65-65-65z" />
<glyph unicode="&#xe927;" glyph-name="support" d="M992 544.8c0 168.8-128 309.6-295.2 325.6-6.4 20.8-24.8 36-48 36h-274.4c-22.4 0-41.6-15.2-48-36-166.4-16.8-294.4-156.8-294.4-325.6v-261.6c0-55.2 44.8-100.8 100.8-100.8h78.4c23.2 0 42.4 19.2 42.4 42.4v277.6c0 23.2-19.2 42.4-42.4 42.4h-78.4c-24.8 0-48-8.8-65.6-24v24c0 150.4 114.4 276 262.4 290.4 8-16.8 24.8-28.8 44.8-28.8h274.4c20 0 36.8 12 44.8 28.8 148-15.2 262.4-140 262.4-290.4v-24c-17.6 15.2-40.8 24-65.6 24h-78.4c-23.2 0-42.4-19.2-42.4-42.4v-277.6c0-23.2 19.2-42.4 42.4-42.4h78.4c24.8 0 48 8.8 65.6 24v-12.8c0-66.4-54.4-120.8-120.8-120.8h-212.8c-8 28-33.6 48-63.2 48h-64c-36 0-65.6-29.6-65.6-65.6s29.6-65.6 65.6-65.6h64c30.4 0 56 20.8 63.2 48h213.6c86.4 0 156 70.4 156 156v351.2zM217.6 502.4v-277.6c0-4-3.2-7.2-7.2-7.2h-7.2v292h7.2c4.8 0 7.2-3.2 7.2-7.2v0zM132.8 509.6h36v-292h-36c-36 0-65.6 29.6-65.6 65.6v160.8c0 36 29.6 65.6 65.6 65.6zM649.6 841.6h-275.2c-8 0-14.4 6.4-14.4 14.4s6.4 14.4 14.4 14.4h274.4c8 0 14.4-6.4 14.4-14.4s-5.6-14.4-13.6-14.4zM806.4 224.8v277.6c0 4 3.2 7.2 7.2 7.2h7.2v-292h-7.2c-4.8 0.8-7.2 3.2-7.2 7.2zM558.4 24.8h-64c-16.8 0-30.4 13.6-30.4 30.4s13.6 30.4 30.4 30.4h64c16.8 0 30.4-13.6 30.4-30.4s-12.8-30.4-30.4-30.4zM891.2 218.4h-36v291.2h36c36 0 65.6-29.6 65.6-65.6v-160.8c0-36-29.6-64.8-65.6-64.8z" />
<glyph unicode="&#xe928;" glyph-name="tag_netbarg" d="M730.4 752.8l-217.6 162.4c-20 12-44.8 11.2-64.8-0.8l-215.2-161.6c-18.4-11.2-28.8-31.2-28.8-52v-674.4c0-33.6 27.2-61.6 61.6-61.6h432.8c33.6 0 61.6 27.2 61.6 61.6v673.6c-0.8 21.6-11.2 40.8-29.6 52.8zM716.8 62.4c0-40.8-2.4-56-52-56h-366.4c-45.6 0-52 12.8-52 56v615.2c0 18.4 8.8 36 23.2 46.4 0.8 0.8 1.6 1.6 2.4 2.4l177.6 133.6c4 3.2 8 5.6 12 7.2 12 4.8 25.6 4.8 37.6 0 4-1.6 8.8-4 12-7.2l179.2-133.6c0.8-0.8 1.6-1.6 2.4-2.4 14.4-10.4 23.2-28 23.2-46.4v-615.2zM568.8 644.8c0 48-39.2 87.2-87.2 87.2s-87.2-39.2-87.2-87.2 39.2-87.2 87.2-87.2c48 0 87.2 39.2 87.2 87.2v0zM426.4 644.8c0 30.4 24.8 55.2 55.2 55.2s55.2-24.8 55.2-55.2c0-30.4-24.8-55.2-55.2-55.2s-55.2 24.8-55.2 55.2v0zM556.8 258.4c-49.6-8.8-198.4-49.6-136 48.8 14.4 23.2 48.8 41.6 86.4 24 26.4-12 44-37.6 49.6-72.8v0zM609.6 201.6c-26.4-12.8-30.4-43.2-100-56.8-50.4-9.6-104.8 4-106.4 49.6 43.2 38.4 146.4 31.2 206.4 44.8-9.6 72-48.8 128-112 140.8-79.2 16-129.6-51.2-140.8-116-13.6-81.6 33.6-145.6 99.2-158.4 57.6-12 158.4-0.8 153.6 96z" />
<glyph unicode="&#xe929;" glyph-name="telegram-logo" d="M804.816 18.656c-7.496 0-14.944 2.208-21.328 6.552l-241.376 163.728-129.464-93.168c-10.144-7.304-23.232-9.136-35.040-4.928-11.776 4.232-20.704 13.976-23.896 26.072l-65.016 246.368-232.28 88.808c-14.616 5.592-24.312 19.6-24.416 35.24-0.104 15.664 9.4 29.784 23.944 35.576l883.184 351.424c4.008 1.712 8.264 2.696 12.52 2.944 1.536 0.104 3.064 0.104 4.608 0 8.856-0.52 17.56-4.128 24.336-10.784 0.72-0.688 1.384-1.384 2.008-2.128 5.64-6.432 8.712-14.248 9.296-22.24 0.152-2 0.128-4.032-0.048-6.064-0.128-1.456-0.32-2.896-0.624-4.328l-149.080-782.2c-2.4-12.568-10.936-23.088-22.76-27.984-4.664-1.952-9.64-2.888-14.568-2.888v0zM563.312 266.4l215.008-145.84 116 608.616-418.96-403.128 86.928-58.96c0.352-0.224 0.68-0.472 1.024-0.688v0zM384.32 298.832l28.776-109.096 62.048 44.648-81.224 55.096c-3.784 2.552-7.032 5.712-9.6 9.352v0zM174.552 488.312l159.496-60.984c11.432-4.376 20.040-13.976 23.184-25.8l20.208-76.664c0.936 8.856 4.944 17.16 11.456 23.424l399.2 384.128-613.544-244.104z" />
<glyph unicode="&#xe92a;" glyph-name="Theater" d="M914.4 928c0 0-157.6-159.2-403.2-159.2s-402.4 159.2-402.4 159.2c-12.8 0-20.8-10.4-20.8-23.2v-508c0-236.8 188.8-428.8 425.6-428.8h-1.6c236.8 0 424.8 192 424.8 428v508.8c-0.8 12.8-9.6 23.2-22.4 23.2zM896 388c0-199.2-172-364-384-364v0c-212 0-384 164-384 364v428c0 0.8 0.8 2.4 0.8 3.2 2.4 12.8 19.2 17.6 29.6 9.6 33.6-28 164.8-110.4 353.6-110.4s320.8 82.4 353.6 110.4c10.4 8.8 27.2 4 29.6-9.6 0-0.8 0.8-2.4 0.8-3.2v-428zM360 551.2c28 0 51.2-23.2 51.2-51.2 0-16 12.8-28 28-28 16 0 28 12.8 28 28 0 59.2-48 108-107.2 108s-108-48-108-108c0-16 12.8-28 28-28 16 0 28 12.8 28 28 1.6 28.8 24 51.2 52 51.2v0zM584 472c16 0 28 12.8 28 28 0 28 23.2 51.2 51.2 51.2s51.2-23.2 51.2-51.2c0-16 12.8-28 28-28 16 0 28 12.8 28 28 0 59.2-48 108-108 108-59.2 0-108-48-108-108 1.6-15.2 14.4-28 29.6-28v0zM368 325.6c0 16-12.8 28-28 28-16 0-28-12.8-28-28 0-111.2 90.4-200.8 200.8-200.8s200.8 90.4 200.8 200.8c0 16-12.8 28-28 28-16 0-28-12.8-28-28 0-80-64.8-144-144-144-81.6-0.8-145.6 64-145.6 144v0z" />
<glyph unicode="&#xe92b;" glyph-name="timer" d="M77.6 400c0-238.4 193.6-432 432-432s432 193.6 432 432c0 118.4-48 227.2-125.6 304.8l33.6 33.6 16-16c6.4-6.4 15.2-9.6 24-9.6s17.6 3.2 24 9.6c13.6 13.6 13.6 35.2 0 48l-78.4 78.4c-13.6 13.6-34.4 13.6-48 0s-13.6-34.4 0-48l16-16-37.6-37.6c-63.2 46.4-138.4 75.2-220.8 82.4v28.8h75.2c19.2 0 33.6 15.2 33.6 33.6 0 19.2-15.2 33.6-33.6 33.6h-224c-19.2 0-33.6-15.2-33.6-33.6 0-19.2 15.2-33.6 33.6-33.6h80v-28.8c-222.4-16-398.4-202.4-398.4-429.6v0zM510.4 764.8c201.6 0 365.6-164 365.6-365.6s-164-365.6-365.6-365.6c-201.6 0-365.6 164-365.6 365.6 0 202.4 164 365.6 365.6 365.6v0zM510.4 372h144.8c19.2 0 33.6 15.2 33.6 33.6 0 19.2-15.2 33.6-33.6 33.6h-111.2v176c0 19.2-15.2 33.6-33.6 33.6-19.2 0-33.6-15.2-33.6-33.6v-209.6c-0.8-18.4 14.4-33.6 33.6-33.6v0z" />
<glyph unicode="&#xe92c;" glyph-name="transaction" d="M992 739.2c0 32.8-26.4 59.2-59.2 59.2h-841.6c-32.8 0-59.2-26.4-59.2-59.2v-581.6c0-32.8 26.4-59.2 59.2-59.2h844c32.8 0 59.2 26.4 56.8 61.6 0 0 0 579.2 0 579.2zM70.4 736.8c0 12 10.4 20 20 20v1.6h841.6c12 0 20-10.4 20-20v-111.2h-881.6v109.6zM952.8 156.8c0-12-10.4-20-20-20h-841.6c-12 0-20 10.4-20 20v360h882.4v-360zM793.6 444c-4.8 5.6-14.4 5.6-19.2 0-4.8-4.8-4.8-14.4 0-19.2l92-92h-212c-8 0-13.6-6.4-13.6-13.6s6.4-14.4 13.6-14.4h212l-92.8-92.8c-4.8-5.6-4.8-14.4 0-19.2 5.6-5.6 14.4-5.6 19.2 0l116 116c5.6 4.8 5.6 14.4 0 19.2l-115.2 116zM225.6 192.8c4.8-5.6 14.4-5.6 19.2 0 4.8 4.8 4.8 14.4 0 19.2l-92 92h212c8 0 13.6 6.4 13.6 13.6s-6.4 14.4-13.6 14.4h-212l92 92c4.8 5.6 4.8 14.4 0 19.2-5.6 5.6-14.4 5.6-19.2 0l-115.2-115.2c-5.6-4.8-5.6-14.4 0-19.2l115.2-116z" />
<glyph unicode="&#xe92d;" glyph-name="user-avatar" d="M626.4 420.8c80 49.6 132 146.4 132 236 0 128.8-104.8 271.2-246.4 271.2s-246.4-142.4-246.4-271.2c0-89.6 52-187.2 132-236-189.6-50.4-328.8-224-328.8-428 0-13.6 11.2-24.8 24.8-24.8h836.8c13.6 0 24.8 11.2 24.8 24.8 0 204-139.2 377.6-328.8 428v0zM315.2 656.8c0 127.2 104.8 221.6 196.8 221.6s196.8-94.4 196.8-221.6c0-126.4-104.8-221.6-196.8-221.6s-196.8 95.2-196.8 221.6v0zM119.2 17.6c12.8 204.8 184.8 368.8 392.8 368.8s380-164 392.8-369.6h-785.6z" />
<glyph unicode="&#xe92e;" glyph-name="wallet" d="M989.6 483.2h-46.4v212.8c0 51.2-41.6 92.8-92.8 92.8h-63.2l-64 116c-9.6 17.6-28.8 28.8-48.8 28.8-9.6 0-18.4-2.4-27.2-7.2l-246.4-137.6h-276c-51.2 0-92.8-41.6-92.8-92.8v-637.6c0-51.2 41.6-92.8 92.8-92.8h725.6c51.2 0 92.8 41.6 92.8 92.8v188h46.4v236.8zM850.4 752c28.8 0 52-21.6 55.2-49.6h-69.6l-28 49.6h42.4zM665.6 893.6c8.8 4.8 20.8 1.6 25.6-7.2l102.4-184h-472l344 191.2zM905.6 59.2c0-30.4-24.8-56-56-56h-724.8c-30.4 0-56 24.8-56 56v636.8c0 30.4 24.8 56 56 56h208.8l-88.8-49.6h-108c-10.4 0-18.4-8-18.4-18.4s8-18.4 18.4-18.4h769.6v-182.4h-136c-63.2 0-114.4-51.2-114.4-114.4v-8c0-63.2 51.2-114.4 114.4-114.4h136l-0.8-187.2zM952 283.2h-181.6c-42.4 0-77.6 34.4-77.6 77.6v8c0 42.4 34.4 77.6 77.6 77.6h181.6v-163.2z" />
<glyph unicode="&#xe92f;" d="M198.6 280.976c8.824-8.824 23.176-8.824 31.976 0l281.144 281.68 281.672-281.68c8.832-8.824 23.184-8.824 31.976 0 8.824 8.8 8.824 23.144 0 31.976l-297.096 297.112c-4.416 4.408-9.936 6.624-15.984 6.624-5.52 0-11.576-2.208-15.992-6.624l-297.128-297.104c-9.368-8.84-9.368-23.184-0.568-31.984v0z" />
<glyph unicode="&#xe930;" glyph-name="arrow-down" d="M982.096 698.536c-13.24 13.24-34.76 13.24-47.968 0l-421.712-422.528-422.512 422.528c-13.248 13.24-34.768 13.24-47.968 0-13.24-13.2-13.24-34.72 0-47.968l445.656-445.656c6.624-6.616 14.904-9.936 23.976-9.936 8.28 0 17.368 3.32 23.992 9.936l445.696 445.656c14.040 13.248 14.040 34.768 0.84 47.968v0z" />
<glyph unicode="&#xe931;" glyph-name="arrow-left" d="M762.536-22.096c13.24 13.24 13.24 34.76 0 47.968l-422.528 421.712 422.52 422.512c13.24 13.248 13.24 34.768 0 47.968-13.2 13.24-34.72 13.24-47.968 0l-445.648-445.648c-6.616-6.624-9.936-14.904-9.936-23.976 0-8.28 3.32-17.368 9.936-23.992l445.656-445.696c13.248-14.048 34.768-14.048 47.968-0.848v0z" />
<glyph unicode="&#xe932;" glyph-name="arrow-right" d="M261.464 918.096c-13.24-13.24-13.24-34.76 0-47.968l422.52-421.712-422.52-422.512c-13.24-13.248-13.24-34.768 0-47.968 13.2-13.24 34.72-13.24 47.968 0l445.656 445.656c6.616 6.624 9.936 14.904 9.936 23.976 0 8.28-3.32 17.368-9.936 23.992l-445.648 445.688c-13.256 14.048-34.776 14.048-47.976 0.848v0z" />
<glyph unicode="&#xe933;" glyph-name="arrow-up" d="M41.904 197.464c13.24-13.24 34.76-13.24 47.968 0l421.712 422.52 422.512-422.52c13.248-13.24 34.768-13.24 47.968 0 13.24 13.2 13.24 34.72 0 47.968l-445.648 445.656c-6.624 6.616-14.904 9.936-23.976 9.936-8.28 0-17.368-3.32-23.992-9.936l-445.696-445.648c-14.048-13.256-14.048-34.776-0.848-47.976v0z" />
<glyph unicode="&#xe934;" glyph-name="favorite" d="M511.976 17.632v0c-5.544 0-10.888 2.224-14.776 6.152l-344.408 349.64c-77.848 77.816-120.792 170.528-120.792 260.936 0 145.968 96.952 244.008 241.304 244.008 124.080 0 173.24-55.112 238.672-132.040 65.432 76.928 114.608 132.040 238.672 132.040 144.352 0 241.344-98.040 241.344-244.008 0-90.408-42.944-183.112-120.872-261.064l-344.376-349.512c-3.92-3.92-9.224-6.152-14.768-6.152v0zM273.304 836.928c-121.4 0-199.864-79.512-199.864-202.568 0-79.32 38.608-161.632 108.776-231.752l329.768-334.752 329.728 334.624c70.216 70.248 108.856 152.552 108.856 231.88 0 123.064-78.464 202.568-199.912 202.568-107.232 0-146.208-45.84-210.8-121.768l-12.128-14.248c-3.928-4.608-9.72-7.24-15.744-7.24-6.072 0-11.824 2.632-15.744 7.24l-12.056 14.176c-64.632 76-103.64 121.84-210.88 121.84v0z" />
<glyph unicode="&#xe935;" glyph-name="eyeglasses" d="M975.976 487.992h-34.84c-15.24 90.616-93.6 152-187.96 152-93.224 0-171.176-57.936-189.216-145.28-15.56 13.040-33.28 19.92-51.96 19.92s-36.4-6.88-51.96-19.92c-17.8 87.424-94.84 145.28-186.864 145.28-101.096 0-184.144-69.576-192.36-168.016h-32.8c-8.84-0.008-16.016-15.184-16.016-24.024 0-8.824 7.176-23.92 16.016-23.92h32.8c8.224-98.44 91.264-168.024 192.36-168.024 103.416 0 187.72 75.28 190.544 178.72 13.68 20.544 30.616 31.944 48.28 31.944 17.656 0 34.6-11.4 48.28-31.944 2.816-103.44 88.2-178.72 192.896-178.72 105.216 0 190.856 78.080 190.856 183.944h31.936c8.84 0 16.024 15.2 16.024 24.016 0.008 8.84-7.176 24.024-16.016 24.024v0zM273.12 295.952c-84.472 0-153.12 68.208-153.12 152 0 83.888 68.648 152 153.12 152 84.608 0 150.88-66.712 150.88-152 0-85.2-66.272-152-150.88-152v0zM753.12 295.952c-84.472 0-153.12 68.208-153.12 152 0 83.888 68.648 152 153.12 152 84.608 0 150.88-66.712 150.88-152 0-85.2-66.272-152-150.88-152v0z" />
<glyph unicode="&#xe936;" glyph-name="notebook" d="M724.080 928h-653.84c-8.456 0-15.32-6.864-15.32-15.32v-929.36c0-8.456 6.864-15.32 15.32-15.32h653.84c42.224 0 76.592 34.36 76.592 76.592v806.816c0 42.232-34.368 76.592-76.592 76.592v0zM770.040 44.592c0-25.344-20.624-45.96-45.96-45.96h-638.52v898.728h638.52c25.336 0 45.96-20.616 45.96-45.96v-806.808zM136.624 851.408v-801.704c0-8.456 6.864-15.32 15.32-15.32 8.464 0 15.32 6.864 15.32 15.32v801.704c0 8.456-6.856 15.32-15.312 15.32-8.464-0.008-15.328-6.864-15.328-15.32v0zM642.376 785.024h-347.456c-8.456 0-15.32-6.864-15.32-15.32v-183.832c0-8.456 6.864-15.32 15.32-15.32h347.456c8.456 0 15.32 6.864 15.32 15.32v183.832c0 8.456-6.864 15.32-15.32 15.32v0zM627.056 601.192h-316.816v153.192h316.816v-153.192zM356.2 693.104h224.904c8.456 0 15.32 6.864 15.32 15.32s-6.864 15.32-15.32 15.32h-224.904c-8.456 0-15.32-6.864-15.32-15.32s6.864-15.32 15.32-15.32v0zM356.2 631.832h224.904c8.456 0 15.32 6.864 15.32 15.32s-6.864 15.32-15.32 15.32h-224.904c-8.456 0-15.32-6.864-15.32-15.32s6.864-15.32 15.32-15.32v0zM856.816 80.064c0.040-0.384 0.096-0.752 0.168-1.12 0.016-0.128 0.032-0.248 0.048-0.376 0.088-0.456 0.208-0.912 0.336-1.352 0.008-0.040 0.024-0.072 0.032-0.096 0.16-0.536 0.344-1.056 0.568-1.568l40.792-98.12c2.376-5.712 7.96-9.432 14.144-9.432s11.768 3.72 14.144 9.432l40.792 98.12c0.216 0.512 0.408 1.024 0.568 1.568 0.008 0.032 0.024 0.064 0.032 0.096 0.128 0.44 0.248 0.888 0.336 1.352 0.024 0.128 0.040 0.248 0.056 0.376 0.064 0.368 0.128 0.736 0.16 1.12 0.048 0.496 0.080 1.008 0.080 1.528v651.944c0 25.344-20.616 45.96-45.96 45.96h-20.424c-25.344 0-45.96-20.616-45.96-45.96v-651.952c0.008-0.512 0.040-1.024 0.088-1.52v0zM902.696 748.856h20.424c8.448 0 15.32-6.872 15.32-15.32v-25.528h-51.064v25.528c0 8.448 6.872 15.32 15.32 15.32v0zM887.376 96.904v580.464h51.064v-580.464h-51.064zM930.8 66.264l-17.896-43.048-17.896 43.048h35.792z" />
<glyph unicode="&#xe937;" glyph-name="printer-2" d="M882.928 746.048h-91.104v91.12c0 24.344-19.808 44.152-44.152 44.152h-480.936c-24.344 0-44.152-19.808-44.152-44.152v-91.12h-91.12c-57.488 0-104.264-46.776-104.264-104.264v-360.712c0-57.488 46.776-104.264 104.264-104.264h91.12v-121.176c0-24.336 19.808-44.136 44.152-44.136h480.944c24.344 0 44.152 19.8 44.152 44.136v121.184h91.104c57.496 0 104.272 46.776 104.272 104.264v360.704c-0.008 57.488-46.776 104.264-104.28 104.264v0zM250.76 837.168c0 8.808 7.168 15.968 15.968 15.968h480.944c8.808 0 15.968-7.168 15.968-15.968v-91.12h-512.88v91.12zM131.464 717.864h751.464c41.96 0 76.096-34.12 76.096-76.080v-166.264h-903.64v166.264c0 41.96 34.136 76.080 76.080 76.080v0zM763.648 55.64c0-8.8-7.168-15.96-15.968-15.96h-480.944c-8.808 0-15.968 7.16-15.968 15.96v271.472h512.88v-271.472zM882.928 205h-91.104v122.112h91.104c7.792 0 14.088 6.312 14.088 14.088s-6.304 14.088-14.088 14.088h-751.464c-7.776 0-14.088-6.312-14.088-14.088 0-7.784 6.312-14.088 14.088-14.088h91.12v-122.112h-91.12c-41.952 0-76.080 34.136-76.080 76.080v166.264h903.64v-166.264c0-41.952-34.136-76.080-76.096-76.080v0zM822.824 537.528c32.624 0 59.176 26.544 59.176 59.176 0 32.624-26.544 59.176-59.176 59.176s-59.176-26.544-59.176-59.176c0-32.632 26.544-59.176 59.176-59.176v0zM822.824 627.696c17.088 0 30.992-13.904 30.992-30.992s-13.904-30.992-30.992-30.992c-17.088 0-30.992 13.904-30.992 30.992-0.008 17.088 13.896 30.992 30.992 30.992v0zM687.552 552.552c24.344 0 44.152 19.808 44.152 44.152s-19.808 44.152-44.152 44.152c-24.344 0-44.152-19.808-44.152-44.152 0-24.352 19.808-44.152 44.152-44.152v0zM687.552 612.672c8.808 0 15.968-7.168 15.968-15.968 0-8.808-7.168-15.968-15.968-15.968-8.808 0-15.968 7.168-15.968 15.968s7.16 15.968 15.968 15.968v0zM687.552 280.144h-360.696c-7.792 0-14.088-6.312-14.088-14.088s6.304-14.088 14.088-14.088h360.696c7.776 0 14.088 6.312 14.088 14.088s-6.304 14.088-14.088 14.088v0zM687.552 205h-360.696c-7.792 0-14.088-6.312-14.088-14.088s6.304-14.088 14.088-14.088h360.696c7.776 0 14.088 6.312 14.088 14.088s-6.304 14.088-14.088 14.088v0zM687.552 129.848h-360.696c-7.792 0-14.088-6.312-14.088-14.088 0-7.784 6.304-14.088 14.088-14.088h360.696c7.776 0 14.088 6.312 14.088 14.088s-6.304 14.088-14.088 14.088v0z" />
<glyph unicode="&#xe938;" glyph-name="star" d="M525.904 904.64l120.304-284.304 307.512-26.304c21.272-1.88 30.056-28.664 13.696-42.608l-233.152-202.176 69.824-300.672c4.968-20.848-17.76-37.392-36-26.24l-264.424 159.52-264.424-159.52c-18.24-10.912-40.968 5.392-36 26.24l69.816 300.672-233.392 202.184c-16.12 14.184-7.336 40.728 13.944 42.608l307.512 26.304 120.304 284.296c8.24 19.88 36.176 19.88 44.48 0v0z" />
<glyph unicode="&#xe939;" glyph-name="star-half" d="M252.776 340.608l-52.96-301.648c-2.096-12.072 3.336-24.224 13.76-30.816 4.832-3.040 10.48-4.632 16.056-4.632 6.144 0 12.368 1.96 17.648 5.72l260.424 188.296 260.336-188.296c5.28-3.76 11.504-5.72 17.72-5.72 5.504 0 11.152 1.592 15.984 4.632 10.424 6.592 15.848 18.744 13.76 30.816l-52.96 301.648 210.576 185.632c8.76 7.744 12.296 19.816 8.984 31.040-3.336 11.28-12.744 19.592-24.312 21.408l-318 49.56-104.24 250.576c-0.28 0.648-0.848 1.096-1.144 1.664-1.448 2.888-3.112 5.704-5.424 8.016-2.168 2.112-4.704 3.552-7.312 4.928-0.872 0.496-1.472 1.288-2.416 1.584 0 0.072 0 0-0.056 0.072-3.632 1.52-7.536 2.24-11.504 2.24-4.056 0-7.888-0.8-11.592-2.24 0 0 0 0-0.056-0.072-0.72-0.296-1.24-0.944-1.96-1.296-2.744-1.44-5.496-2.96-7.744-5.224-2.24-2.312-3.904-5.056-5.352-7.944-0.296-0.648-0.944-1.096-1.224-1.744l-104.232-250.568-318-49.56c-11.504-1.816-20.984-10.2-24.312-21.408-3.312-11.224 0.224-23.296 8.984-31.040l210.568-185.624zM613.816 571.168l271.056-42.264-174.928-154.216c-7.872-6.944-11.576-17.424-9.76-27.776l42.96-245.152-217.792 157.48c-0.368 0.224-0.72 0.296-1.096 0.504-1.816 1.168-3.76 1.888-5.776 2.608-1.664 0.648-3.336 1.592-5.072 1.872-1.872 0.368-3.832 0.224-5.704 0.224v524.16l82.816-199.224c4.056-9.68 12.872-16.624 23.296-18.216v0z" />
<glyph unicode="&#xe93a;" glyph-name="android-logo" d="M285.392 237.808c0-23.040 15.408-38.448 38.448-38.448h38.448v-134.4c0-30.768 26.784-57.6 57.552-57.6s57.552 26.832 57.552 57.6v134.4h76.896v-134.4c0-30.768 26.784-57.6 57.552-57.6s57.552 26.832 57.552 57.6v134.4h38.448c23.040 0 38.448 15.408 38.448 38.448v384h-460.896v-384zM189.392 621.808c-30.72 0-57.552-26.976-57.552-57.552v-268.896c0-30.72 26.832-57.552 57.552-57.552 30.768 0 57.552 26.832 57.552 57.552v268.896c0 30.576-26.784 57.552-57.552 57.552v0zM842.288 621.808c-30.768 0-57.552-26.976-57.552-57.552v-268.896c0-30.72 26.784-57.552 57.552-57.552 30.72 0 57.552 26.832 57.552 57.552v268.896c0 30.576-26.832 57.552-57.552 57.552v0zM650.288 844.576l49.872 49.872c7.68 7.68 7.68 19.104 0 26.784-7.68 7.728-19.152 7.728-26.832 0l-57.744-57.552c-26.784 19.152-61.296 26.832-99.744 26.832s-72.96-7.68-103.68-23.088l-53.808 57.744c-7.68 3.792-23.088 3.792-30.768 0-3.744-7.68-3.744-23.040 0-30.72l50.064-49.872c-53.808-42.384-92.256-107.616-92.256-184.32h460.896c0 76.704-38.448 145.872-96 184.32v0zM438.944 736.96h-38.208v38.4h38.208v-38.4zM630.944 736.96h-38.208v38.4h38.208v-38.4z" />
<glyph unicode="&#xe93b;" glyph-name="apple-logotype" d="M558.856 855.296c34.48 40.52 92.76 70.68 140.84 72.704 6.144-56.304-16.416-112.704-49.8-153.336-33.384-40.52-88.12-72.136-141.776-67.92-7.296 55.112 19.744 112.56 50.736 148.552v0zM832.456 87.16c-39.904-58.48-81.2-116.664-146.36-117.856-64.12-1.256-84.64 38.064-157.816 38.064-73.28 0-96.2-36.88-156.72-39.32-62.92-2.344-110.736 63.224-150.936 121.456-82.184 119.12-144.944 336.832-60.568 483.752 41.776 72.976 116.616 119.12 197.704 120.32 61.824 1.144 120.16-41.776 157.864-41.776 37.816 0 108.64 51.56 183.12 43.96 31.144-1.256 118.656-12.6 174.8-95.056-4.424-2.92-104.376-61.256-103.184-182.816 1.2-145.216 126.824-193.496 128.28-194.16-1.144-3.384-20.040-68.904-66.184-136.568v0z" />
<glyph unicode="&#xe93c;" glyph-name="close" d="M589.584 453.632l372.592 372.592c23.136 23.136 23.136 60.664 0 83.8-23.16 23.16-60.568 23.16-83.728 0l-372.672-372.592-372.592 372.592c-23.16 23.16-60.664 23.16-83.824 0-23.136-23.136-23.136-60.664 0-83.8l372.688-372.592-372.688-372.592c-23.136-23.16-23.136-60.664 0-83.824 11.576-11.56 26.712-17.36 41.856-17.36 15.16 0 30.392 5.8 41.976 17.36l372.592 372.592 372.664-372.592c11.576-11.56 26.712-17.36 41.88-17.36 15.136 0 30.272 5.8 41.856 17.36 23.136 23.16 23.136 60.664 0 83.824l-372.6 372.592z" />
<glyph unicode="&#xe93d;" glyph-name="close-circular-button-symbol" d="M683.512 619.512c-11.848 11.888-31.048 11.888-42.784 0l-128.88-128.88-127.152 127.152c-11.696 11.696-30.744 11.696-42.488 0-11.696-11.736-11.696-30.784 0-42.488l127.152-127.152-127.864-127.856c-11.848-11.848-11.848-31.048 0-42.784 11.696-11.848 30.896-11.848 42.632 0l128.016 128.016 127.12-127.12c11.736-11.736 30.632-11.736 42.336 0 11.736 11.696 11.736 30.744 0 42.336l-126.968 127.112 128.88 128.912c11.736 11.856 11.736 31.056 0 42.752v0zM512 928c-265.144 0-480-214.856-480-480 0-265.104 214.856-480 480-480 264.952 0 480 215.048 480 480 0 265.144-214.896 480-480 480v0zM512 28.072c-232.032 0-419.928 188.088-419.928 419.928 0 232.032 187.896 419.928 419.928 419.928 231.84 0 419.928-187.896 419.928-419.928 0-231.848-188.088-419.928-419.928-419.928v0z" />
<glyph unicode="&#xe93e;" glyph-name="facebook-logo" d="M749.336 929.040l-124.496 0.184c-139.848 0-230.256-92.736-230.256-236.248v-108.944h-125.184c-10.776 0-19.552-8.728-19.552-19.552v-157.856c0-10.776 8.776-19.552 19.552-19.552h125.184v-398.256c0-10.776 8.776-19.552 19.6-19.552h163.256c10.824 0 19.6 8.776 19.6 19.552v398.264h146.344c10.824 0 19.56 8.776 19.56 19.552l0.088 157.856c0 5.168-2.096 10.136-5.752 13.848-3.656 3.656-8.624 5.704-13.848 5.704h-146.392v92.344c0 44.376 10.584 66.912 68.368 66.912l83.88 0.048c10.824 0 19.552 8.776 19.552 19.552v146.528c-0.008 10.84-8.736 19.56-19.504 19.616v0z" />
<glyph unicode="&#xe93f;" glyph-name="garbage-bin" d="M206.816-32h610.488c12.584 0 22.88 10.296 22.88 22.88v634.624h-656.248v-634.624c0-12.704 10.184-22.88 22.88-22.88v0zM643.776 502.416c0 20.592 16.696 37.408 37.408 37.408h0.8c20.592 0 37.408-16.704 37.408-37.408v-411.448c0-20.592-16.696-37.408-37.408-37.408h-0.8c-20.592 0-37.408 16.704-37.408 37.408v411.448zM474.248 502.416c0 20.592 16.704 37.408 37.408 37.408h0.808c20.584 0 37.408-16.704 37.408-37.408v-411.448c0-20.592-16.704-37.408-37.408-37.408h-0.808c-20.584 0-37.408 16.704-37.408 37.408v411.448zM304.728 502.416c0 20.592 16.704 37.408 37.408 37.408h0.8c20.592 0 37.408-16.704 37.408-37.408v-411.448c0-20.592-16.696-37.408-37.408-37.408h-0.8c-20.592 0-37.408 16.704-37.408 37.408v411.448zM658.304 790.736v80.072c0 31.568-25.624 57.192-57.192 57.192h-178.216c-31.576 0-57.192-25.624-57.192-57.192v-80.072h45.752v68.632c0 12.584 10.296 22.88 22.88 22.88h155.224c12.584 0 22.88-10.296 22.88-22.88v-68.632h45.864zM155.336 772.144v-78.008c0-12.584 10.296-22.88 22.88-22.88h667.568c12.584 0 22.88 10.296 22.88 22.88v78.008c0 12.584-10.296 22.88-22.88 22.88h-667.568c-12.584 0-22.88-10.184-22.88-22.88v0z" />
<glyph unicode="&#xe940;" glyph-name="google" d="M992 501.336h-448v-149.328h273.32c-40.768-129.832-162.032-224-305.328-224-176.736 0-320 143.272-320 319.992 0 176.736 143.272 320 320 320 89 0 169.496-36.352 227.504-94.984l108.4 117.824c-86.576 84.832-205.112 137.16-335.896 137.16-265.088 0-480-214.896-480-480 0-265.088 214.912-480 480-480 232.224 0 435.528 164.912 480 383.992v149.344z" />
<glyph unicode="&#xe941;" glyph-name="heart-shape-silhouette" d="M923.96 793c-45.36 44.272-108.032 66.424-188.040 66.424-22.16 0-44.76-3.856-67.784-11.528-23.048-7.672-44.464-18.040-64.272-31.040-19.84-13.032-36.856-25.296-51.176-36.696-14.296-11.432-27.84-23.6-40.72-36.44-12.84 12.848-26.416 25.008-40.712 36.44-14.288 11.4-31.328 23.632-51.136 36.696-19.84 13.032-41.264 23.376-64.312 31.040-23.016 7.68-45.616 11.528-67.744 11.528-80.008 0-142.672-22.16-188.048-66.424-45.344-44.28-68.016-105.736-68.016-184.288 0-23.92 4.208-48.576 12.584-73.904 8.416-25.368 17.952-46.976 28.68-64.824 10.72-17.848 22.856-35.288 36.432-52.24 13.552-16.984 23.472-28.672 29.728-35.088 6.232-6.416 11.144-11.080 14.704-13.936l334.288-322.472c6.416-6.456 14.296-9.664 23.568-9.664 9.312 0 17.144 3.216 23.608 9.632l333.736 321.448c81.768 81.768 122.672 162.128 122.672 241.048 0 78.552-22.704 140.008-68.040 184.288v0z" />
<glyph unicode="&#xe942;" glyph-name="linkedin-letters" d="M43.872 608.616h206.248v-619.368h-206.248v619.368zM927.016 552.016c-43.344 47.312-100.648 70.952-171.896 70.952-26.216 0-50.072-3.224-71.544-9.664-21.464-6.48-39.592-15.544-54.392-27.192-14.8-11.688-26.552-22.512-35.32-32.52-8.312-9.472-16.448-20.52-24.344-33.032v88.056h-205.648l0.64-30.008c0.416-20 0.592-81.664 0.592-185.008s-0.416-238.12-1.24-404.352h205.656v345.632c0 21.24 2.28 38.096 6.856 50.6 8.768 21.28 21.976 39.064 39.696 53.448s39.672 21.576 65.928 21.576c35.848 0 62.184-12.4 79.072-37.184 16.856-24.8 25.328-59.080 25.328-102.824v-331.24h205.6v354.976c0 91.256-21.656 160.52-64.984 207.784v0zM148.272 906.744c-34.608 0-62.624-10.12-84.096-30.312-21.464-20.224-32.176-45.728-32.176-76.56 0-30.416 10.416-55.848 31.24-76.264s48.36-30.6 82.512-30.6h1.24c35.032 0 63.232 10.184 84.688 30.6 21.464 20.416 31.992 45.848 31.576 76.264-0.416 30.832-11.048 56.336-31.872 76.56-20.824 20.2-48.544 30.312-83.112 30.312v0z" />
<glyph unicode="&#xe943;" glyph-name="mathematical-addition-sign" d="M938.928 501.408h-373.52v373.52c-0.008 29.072-24.008 53.072-53.080 53.072-29.736 0-53.736-24-53.736-53.072v-373.52h-373.52c-29.072 0-53.072-24-53.072-53.736 0-29.072 24-53.072 53.072-53.072h373.52v-373.52c0-29.2 24-53.072 53.736-53.072 29.072 0 53.072 23.872 53.072 53.072v373.52h373.52c29.2 0 53.072 24.008 53.072 53.072 0.008 29.736-23.864 53.736-53.064 53.736v0z" />
<glyph unicode="&#xe944;" glyph-name="pencil-edit" d="M956.888 638.28l-42.416-42.456-254.592 254.56 42.424 42.448c46.872 46.872 122.872 46.872 169.744 0l84.84-84.864c46.816-46.848 46.816-122.816 0-169.688v0zM362.872 129.2c-11.72-11.72-11.72-30.704 0-42.424 11.72-11.776 30.696-11.776 42.416 0l466.76 466.64-42.48 42.448-466.696-466.664zM150.712 341.304c-11.72-11.72-11.72-30.704 0-42.424s30.696-11.72 42.416 0l466.744 466.664-42.416 42.424-466.744-466.664zM702.248 723.144l-466.696-466.688c-23.44-23.368-23.384-61.4 0-84.84 23.44-23.44 61.4-23.56 84.896 0.064l466.688 466.6-84.888 84.864zM320.336 44.472c-14.352 14.352-21.28 32.584-23.848 51.336-6.096-0.944-12.248-1.824-18.52-1.824-32.056 0-62.16 12.544-84.84 35.208-22.68 22.744-35.152 52.8-35.152 84.848 0 5.856 0.88 11.536 1.704 17.216-19.4 2.64-37.328 11.136-51.392 25.192-1.344 1.36-1.824 3.168-3.048 4.632l-73.24-293.072 292.32 73.184c-1.288 1.176-2.752 2.056-3.984 3.28v0z" />
<glyph unicode="&#xe945;" glyph-name="pinterest-logo" d="M441.864 289.064c-24.912-130.552-55.28-255.696-145.376-321.064-27.768 197.32 40.84 345.472 72.736 502.776-54.352 91.44 6.528 275.552 121.112 230.184 141.016-55.784-122.136-340.040 54.528-375.6 184.448-37.040 259.736 320.048 145.376 436.16-165.224 167.68-481.016 3.84-442.184-236.256 9.448-58.656 70.056-76.48 24.216-157.496-105.776 23.464-137.304 106.896-133.288 218.096 6.584 182.008 163.568 309.464 321.072 327.096 199.168 22.32 386.112-73.104 411.896-260.472 29.072-211.472-89.864-440.512-302.872-424.024-57.728 4.496-81.944 33.104-127.216 60.6v0z" />
<glyph unicode="&#xe946;" glyph-name="reload-symbol" d="M954.4 928h-884.8c-20.8 0-37.6-16.8-37.6-37.6v-885.6c0-20.8 16.8-37.6 37.6-37.6h885.6c20.8 0 37.6 16.8 37.6 37.6v885.6c-0.8 20.8-17.6 37.6-38.4 37.6v0zM917.6 42.4h-811.2v811.2h810.4v-811.2zM485.6 269.6c7.2-7.2 16.8-11.2 26.4-11.2s19.2 4 26.4 11.2l142.4 142.4c14.4 14.4 14.4 38.4 0 52.8s-38.4 14.4-52.8 0l-79.2-79.2v312c0 20.8-16.8 37.6-37.6 37.6s-37.6-16.8-37.6-37.6v-312l-79.2 79.2c-14.4 14.4-38.4 14.4-52.8 0s-14.4-38.4 0-52.8l144-142.4zM216 120.8h592c20.8 0 37.6 16.8 37.6 37.6s-16.8 37.6-37.6 37.6h-592c-20.8 0-37.6-16.8-37.6-37.6s16.8-37.6 37.6-37.6v0z" />
<glyph unicode="&#xe947;" glyph-name="remove" d="M939.896 514.976h-855.8c-16.448 0-52.096-22.328-52.096-66.976s35.648-66.976 52.096-66.976h855.816c16.432 0 52.088 22.328 52.088 66.976s-35.664 66.976-52.104 66.976v0z" />
<glyph unicode="&#xe948;" glyph-name="twitter" d="M992 745.736c-35.32-15.664-73.28-26.256-113.12-31.016 40.672 24.384 71.896 62.968 86.6 108.968-38.056-22.568-80.208-38.968-125.072-47.792-35.928 38.28-87.112 62.192-143.768 62.192-108.76 0-196.96-88.184-196.96-196.944 0-15.432 1.752-30.472 5.112-44.888-163.688 8.224-308.816 86.624-405.952 205.792-16.96-29.096-26.672-62.928-26.672-99.024 0-68.328 34.76-128.616 87.616-163.936-32.288 1.024-62.656 9.888-89.208 24.64-0.016-0.824-0.016-1.648-0.016-2.48 0-95.424 67.896-175.024 157.992-193.12-16.528-4.496-33.928-6.912-51.888-6.912-12.688 0-25.032 1.24-37.064 3.544 25.064-78.248 97.808-135.2 183.992-136.776-67.408-52.832-152.336-84.32-244.608-84.32-15.904 0-31.576 0.936-46.984 2.768 87.16-55.896 190.688-88.496 301.912-88.496 362.272 0 560.376 300.112 560.376 560.384 0 8.528-0.192 17.024-0.568 25.48 38.488 27.744 71.872 62.44 98.28 101.936v0z" />
<glyph unicode="&#xe949;" glyph-name="yahoo-big-logo" d="M805.36 593.76c-23.48-6.2-238.752-173.072-252.84-214.080-2.96-14.080 0.688-150.96 3.648-171.552 14.12-3 116.272-0.248 135.12-3.688l-2.040-42.28c-18.6 1.688-148.36 1-222.52 1-37.608 0-158.648-3.952-195.968-2.912l7.048 40.32c20.52 1.68 104.912-3.768 123.312 15.96 9.32 10 6.44 140.312 3.248 162.072-7.64 23.44-196.16 259.552-245.248 298.16h-127.12v59.16h427.92v-3.88c0.4 0 1-0.040 1.4-0.312l-1.4-9.92v-45.048h-129.2c57.568-83.992 140-185.552 175.2-234.368l172.24 156.168h-102.4l-14.248 59.12h375.208l-2.88-4.208h1.168l-26.528-38.88c-0.6 0-0.832 0-0.872-0.040l-10.96-15.96h-69.328c-8.832-2.024-16.96-3.872-21.96-4.832v0zM927.528 222.088l-32.968 1.768-36.8 4.6 0.208-63.568 29.152-2.6 31.608-2.168 8.8 61.968zM992 524.888c-11.232 0.48-112.68 10.16-125.832 12.68l1.192-267.6 57.8-4.68 66.84 259.6z" />
<glyph unicode="&#xe94a;" glyph-name="youtube-logo" d="M788.72 225.816h-52.704l0.256 30.576c0 13.584 11.144 24.736 24.8 24.736h3.384c13.64 0 24.84-11.144 24.84-24.736l-0.576-30.576zM591.064 291.384c-13.336 0-24.28-9.016-24.28-20v-148.8c0-10.984 10.944-19.944 24.28-19.944 13.44 0 24.376 8.96 24.376 19.944v148.8c0 10.992-10.936 20-24.376 20v0zM912 374.616v-283.12c0-67.92-58.904-123.496-130.88-123.496h-538.24c-72.024 0-130.88 55.576-130.88 123.496v283.12c0 67.92 58.856 123.496 130.88 123.496h538.24c71.976-0.008 130.88-55.576 130.88-123.496v0zM278.776 60.76v298.224h66.72v44.176l-177.864 0.256v-43.44l55.52-0.144v-299.064h55.624zM478.776 314.56h-55.624v-159.264c0-23.024 1.4-34.536-0.056-38.6-4.536-12.336-24.84-25.464-32.816-1.344-1.304 4.216-0.16 16.976-0.16 38.856l-0.2 160.352h-55.32l0.16-157.816c0.056-24.216-0.576-42.24 0.216-50.464 1.344-14.48 0.824-31.344 14.264-40.984 25.056-18.024 73.024 2.704 85 28.496l-0.104-32.92 44.696-0.056v253.744h-0.056zM656.736 132.16l-0.096 132.616c-0.056 50.464-37.864 80.72-89.176 39.896l0.264 98.544-55.576-0.104-0.264-340.16 45.68 0.68 4.16 21.2c58.392-53.608 95.112-16.888 95.008 47.328v0zM830.856 149.776l-41.72-0.264c-0.056-1.616-0.104-3.536-0.104-5.624v-23.28c0-12.44-10.304-22.544-22.816-22.544h-8.176c-12.496 0-22.816 10.104-22.816 22.544v61.256h95.52v35.936c0 26.256-0.68 52.504-2.816 67.56-6.864 47.496-73.536 55.056-107.24 30.72-10.576-7.6-18.64-17.76-23.336-31.456-4.736-13.64-7.080-32.296-7.080-56.040v-79.016c0.008-131.408 159.592-112.824 140.584 0.208v0zM616.896 578.824c2.864-6.92 7.296-12.6 13.384-16.864 5.936-4.224 13.6-6.304 22.76-6.304 8.024 0 15.104 2.136 21.304 6.616 6.144 4.48 11.344 11.096 15.576 19.944l-1.040-21.816h62.024v263.696h-48.8v-205.216c0-11.144-9.176-20.2-20.376-20.2-11.136 0-20.304 9.056-20.304 20.2v205.216h-50.936v-177.864c0-22.656 0.416-37.76 1.096-45.416 0.68-7.6 2.44-14.896 5.312-21.992v0zM428.976 727.784c0 25.32 2.144 45.056 6.304 59.336 4.216 14.216 11.824 25.616 22.816 34.216 10.936 8.64 24.944 12.976 42.024 12.976 14.336 0 26.616-2.816 36.88-8.336 10.36-5.52 18.28-12.704 23.8-21.616 5.624-8.904 9.424-18.080 11.504-27.456 2.040-9.536 3.080-23.856 3.080-43.176v-66.72c0-24.424-0.984-42.456-2.864-53.856-1.88-11.464-5.936-22.096-12.24-32.040-6.2-9.896-14.16-17.24-23.856-21.92-9.784-4.8-20.984-7.080-33.64-7.080-14.12 0-26.056 1.92-35.84 6.040-9.84 4-17.456 10.144-22.864 18.28-5.464 8.12-9.32 18.016-11.664 29.536-2.344 11.56-3.44 28.904-3.44 51.976v69.84zM477.52 623.056c0-14.944 11.144-27.136 24.696-27.136 13.536 0 24.576 12.184 24.576 27.136v140.36c0 14.896-11.040 27.096-24.576 27.096-13.544 0-24.696-12.2-24.696-27.096v-140.36zM305.96 552.16h58.496l0.056 202.24 69.104 173.24h-63.96l-36.776-128.656-37.24 129.016h-63.336l73.544-173.696 0.112-202.144z" />
<glyph unicode="&#xe94b;" glyph-name="star_form" d="M44.368 498.384l12.352 40.856 12.352 38.976 12.368 39.928 12.352 40.856 349.776-130.216-10.456 399.216h164.432l-11.4-404.904 343.112 128.312 25.68-81.752 12.368-40.872 12.336-39.912-355.488-105.504 229.072-314.616-133.072-100.752-215.76 333.632c-25.992-40.56-60.52-94.736-103.6-162.544l-52.272-82.696c-20.28-31.696-37.704-58.624-52.272-80.8l-134.024 97.912 231.928 320.32-349.784 104.56z" />
<glyph unicode="&#xe94c;" glyph-name="check-mark" d="M390.712-31.68c-29.904 0-58.144 14.008-76.312 37.96l-245.44 324.080c-31.864 42.128-23.608 102.144 18.576 134.128 42.248 31.912 102.2 23.536 134.112-18.576l161.424-213.112 405.904 651.76c27.968 44.856 86.984 58.608 131.912 30.64 44.856-27.896 58.608-86.984 30.64-131.848l-479.552-769.904c-16.616-26.76-45.392-43.608-76.912-45.064-1.464 0.008-2.872-0.064-4.352-0.064v0z" />
<glyph unicode="&#xe94d;" glyph-name="search" d="M971.864 76.032l-250.672 250.616c44.808 62.488 71.712 138.792 71.712 219.176 0 210.448-170.224 380.456-380.456 380.456-210.448 0-380.448-170-380.448-380.456 0-210.224 170-380.448 380.456-380.448 80.384 0 156.688 26.912 219.176 71.712l250.616-250.672c22.544-22.264 62.712-22.264 89.616 0 26.848 26.912 26.848 62.712 0 89.616v0zM412.456 254.992c-161.056 0-290.84 129.784-290.84 290.84s129.784 290.84 290.84 290.84 290.832-129.792 290.832-290.848-129.784-290.832-290.832-290.832v0z" />
<glyph unicode="&#xe94e;" glyph-name="shopping-cart_main_r" d="M972 716.8h-560c-18.4 0-28.8-14.4-23.2-31.2l88.8-259.2c4-13.6 20-25.6 34.4-25.6h367.2c14.4 0 30.4 11.2 34.4 25.6l76.8 265.6c4.8 13.6-3.2 24.8-18.4 24.8v0zM546.4 101.6c0-46.4-37.6-84-84-84s-84 37.6-84 84 37.6 84 84 84c47.2 0 84-37.6 84-84v0zM900.8 100.8c0-46.4-37.6-84-84-84s-84 37.6-84 84c0 46.4 37.6 84 84 84 46.4-0.8 84-38.4 84-84v0zM917.6 315.2h-489.6l-196 564h-152.8c-25.6 0-47.2-20.8-47.2-47.2s21.6-47.2 47.2-47.2h85.6l196-564h557.6c26.4 0 47.2 20.8 47.2 47.2 0 25.6-21.6 47.2-48 47.2v0z" />
<glyph unicode="&#xe94f;" glyph-name="tag_netbarg-2" d="M966.4 424.8l-460 460c-28 28-80.8 46.4-120 41.6l-238.4-28.8c-43.2-4.8-80.8-42.4-85.6-85.6l-28.8-237.6c-4.8-39.2 13.6-92 41.6-120l460-460c15.2-15.2 36-24 57.6-24v0c21.6 0 42.4 8.8 57.6 24l316 316c15.2 15.2 24 36 24 57.6s-8.8 41.6-24 56.8v0zM937.6 339.2l-316-316c-16-16-41.6-16-57.6 0l-460 459.2c-19.2 19.2-33.6 59.2-30.4 87.2l28.8 238.4c3.2 24 25.6 47.2 50.4 50.4l238.4 28.8c27.2 3.2 67.2-10.4 87.2-30.4l460-460c8-8 12-17.6 12-28.8-0.8-11.2-4.8-21.6-12.8-28.8v0zM248.8 812.8c-61.6 0-112-50.4-112-112s50.4-112 112-112 112 50.4 112 112c0 62.4-50.4 112-112 112v0zM248.8 630.4c-39.2 0-71.2 32-71.2 71.2s32 71.2 71.2 71.2 71.2-32 71.2-71.2-32-71.2-71.2-71.2v0zM632 465.6c-37.6-54.4-139.2-232-172.8-81.6-8 35.2 7.2 84.8 58.4 103.2 36.8 13.6 76.8 6.4 114.4-21.6v0zM735.2 460.8c-12.8-36 12-68.8-40.8-147.2-38.4-56-101.6-94.4-145.6-52.8 4 76.8 107.2 166.4 151.2 235.2-76 58.4-164.8 74.4-236.8 27.2-88.8-58.4-73.6-169.6-23.2-240.8 63.2-89.6 168-104 241.6-55.2 64.8 44 148 148 53.6 233.6z" />
<glyph unicode="&#xe950;" glyph-name="bolet" d="M968 506.4l-397.6 397.6c-32 32-84.8 32-116.8 0l-397.6-397.6c-32-32-32-84.8 0-116.8l397.6-397.6c32-32 84.8-32 116.8 0l397.6 397.6c32 32 32 84.8 0 116.8zM512 201.6c-136 0-246.4 110.4-246.4 246.4s110.4 246.4 246.4 246.4 246.4-110.4 246.4-246.4-110.4-246.4-246.4-246.4z" />
<glyph unicode="&#xe951;" glyph-name="checked-box" d="M844.8 41.6h-739.2v738.4h544.8l46.4 73.6h-591.2c-40.8 0-73.6-32.8-73.6-73.6v-738.4c0-40.8 32.8-73.6 73.6-73.6h738.4c40.8 0 73.6 32.8 73.6 73.6v488l-73.6-118.4v-369.6zM968.8 920c-8.8 5.6-18.4 8-28.8 8-16.8 0-33.6-8-43.2-23.2l-400.8-579.2-156 177.6c-20.8 19.2-53.6 18.4-72.8-3.2-19.2-20.8-18.4-53.6 3.2-72.8l187.2-212.8 4.8-4.8 4.8-5.6 1.6-0.8 4-4 10.4-4.8 2.4-0.8 16-2.4h0.8c14.4 0 28 4.8 38.4 16l4 7.2 439.2 633.6c15.2 24 8.8 56-15.2 72v0z" />
<glyph unicode="&#xe952;" glyph-name="phone-call" d="M911.2 874.4l-301.6-301.6v221.6h-38.4v-287.2h287.2v38.4h-221.6l301.6 301.6zM459.2 689.6c4.8 3.2 7.2 8.8 8 14.4s-1.6 11.2-5.6 15.2l-204 203.2c-6.4 6.4-16 7.2-24 2.4-33.6-21.6-201.6-134.4-201.6-208.8 0-265.6 482.4-748 748-748 75.2 0 187.2 168 209.6 201.6 4.8 7.2 4 17.6-2.4 24l-204 203.2c-4 4-9.6 6.4-15.2 5.6s-10.4-3.2-14.4-8c-36.8-50.4-88.8-107.2-105.6-110.4-56-8.8-136 28.8-203.2 96.8-68 68-105.6 147.2-96.8 203.2 3.2 16.8 60 68.8 111.2 105.6zM241.6 884l176.8-176.8c-19.2-14.4-44.8-36-66.4-57.6l-181.6 181.6c23.2 19.2 48.8 37.6 71.2 52.8zM771.2 354.4l176.8-176.8c-15.2-23.2-33.6-48-52.8-71.2l-180.8 181.6c21.6 21.6 42.4 47.2 56.8 66.4zM417.6 353.6c60.8-60.8 154.4-120 236.8-107.2 8.8 1.6 20 7.2 31.2 16l185.6-185.6c-35.2-40-69.6-70.4-91.2-70.4-245.6 0-709.6 464-709.6 709.6 0 20.8 30.4 56 70.4 91.2l185.6-185.6c-8.8-11.2-14.4-21.6-16-31.2-13.6-82.4 46.4-176 107.2-236.8z" />
<glyph unicode="&#xe953;" glyph-name="percent" d="M430.4 151.2l0.8 175.2c-22.4-20.8-46.4-36-73.6-46.4s-55.2-15.2-85.6-15.2c-35.2 0-67.2 6.4-95.2 18.4-28.8 12-53.6 28.8-76 50.4-24 24.8-40.8 50.4-52 78.4-10.4 28-16 58.4-16 92 0 68.8 22.4 125.6 66.4 170.4 23.2 23.2 48.8 40.8 76.8 52.8s58.4 17.6 92.8 17.6c36.8 0 68.8-5.6 97.6-16.8 28-11.2 53.6-28.8 77.6-52 23.2-21.6 40-46.4 51.2-75.2s16.8-60.8 16.8-96.8l-1.6-352h-80zM428 503.2c0 23.2-4 43.2-12 61.6s-19.2 35.2-32.8 49.6c-16 15.2-33.6 27.2-52 35.2s-38.4 12-59.2 12c-23.2 0-43.2-4-62.4-12-18.4-8-35.2-20-50.4-35.2-31.2-28.8-46.4-66.4-46.4-111.2 0-20.8 4-40 12-60 8-19.2 19.2-36.8 34.4-51.2 14.4-14.4 31.2-25.6 50.4-32.8 18.4-8 39.2-11.2 62.4-11.2 20.8 0 40.8 3.2 59.2 10.4s36 18.4 52 34.4c13.6 15.2 24.8 32 32.8 50.4 8 17.6 12 38.4 12 60zM992 694.4c-3.2-6.4-6.4-12-10.4-17.6s-8.8-11.2-15.2-18.4c-17.6-21.6-26.4-32.8-26.4-33.6-24.8-29.6-48-63.2-69.6-100s-45.6-76.8-72-120.8c-21.6-38.4-43.2-76.8-64-115.2-21.6-38.4-42.4-76.8-63.2-114.4-4.8-5.6-10.4-10.4-16-13.6s-13.6-4.8-23.2-4.8c-10.4 0-19.2 3.2-26.4 9.6s-12 16-14.4 28.8l3.2 3.2 167.2 296c37.6 66.4 68.8 119.2 92.8 156.8 24.8 37.6 42.4 62.4 52.8 72.8 2.4 4 5.6 6.4 9.6 8.8 3.2 2.4 6.4 3.2 8.8 3.2 6.4 0 13.6-0.8 20.8-3.2s13.6-4.8 20-8.8c8.8-4.8 16-8.8 19.2-13.6 4.8-4 6.4-9.6 6.4-15.2zM747.2 656c0-10.4-2.4-20.8-6.4-30.4s-9.6-18.4-16.8-25.6c-7.2-7.2-15.2-12.8-24-17.6-8.8-4-18.4-6.4-28.8-6.4-23.2 0-42.4 7.2-56.8 22.4-15.2 15.2-22.4 33.6-22.4 57.6 0 10.4 2.4 20 6.4 29.6 4 8.8 9.6 16.8 16.8 24s15.2 12.8 25.6 16.8c10.4 4 20.8 6.4 31.2 6.4s20.8-2.4 29.6-6.4c8.8-4 17.6-9.6 24.8-16.8s12.8-15.2 16.8-24c2.4-8.8 4-19.2 4-29.6zM980.8 252.8c0-10.4-2.4-20.8-6.4-29.6-4-9.6-9.6-17.6-16-24.8s-14.4-12.8-23.2-16.8c-8.8-4-18.4-6.4-28-6.4-23.2 0-42.4 7.2-57.6 21.6s-22.4 33.6-22.4 56c0 10.4 2.4 20.8 6.4 30.4s9.6 18.4 16.8 24.8c7.2 7.2 16 12.8 25.6 16.8s20.8 6.4 32 6.4c20.8 0 37.6-7.2 52-22.4 13.6-14.4 20.8-33.6 20.8-56z" />
<glyph unicode="&#xe954;" glyph-name="calendar-service" d="M967.2-4l-110.4 110.4 105.6 52.8-287.2 105.6 105.6-287.2 52.8 105.6 110.4-110.4c3.2-3.2 7.2-4.8 11.2-4.8s8 1.6 11.2 4.8c7.2 6.4 7.2 16.8 0.8 23.2v0zM730.4 209.6l150.4-55.2-63.2-32-32-63.2-55.2 150.4zM784 586.4h-618.4v-472h325.6v146.4h146.4v146.4h146.4v179.2zM491.2 553.6h113.6v-113.6h-113.6v113.6zM344.8 553.6h113.6v-113.6h-113.6v113.6zM458.4 293.6h-113.6v113.6h113.6v-113.6zM198.4 553.6h113.6v-113.6h-113.6v113.6zM198.4 407.2h113.6v-113.6h-113.6v113.6zM312 147.2h-113.6v113.6h113.6v-113.6zM458.4 147.2h-113.6v113.6h113.6v-113.6zM604.8 293.6h-113.6v113.6h113.6v-113.6zM751.2 440h-113.6v113.6h113.6v-113.6zM588.8 32.8h-504v635.2h780.8v-325.6c0-8.8 7.2-16 16-16s16 7.2 16 16v504c0 8.8-7.2 16-16 16h-81.6v49.6c0 8.8-7.2 16-16 16h-113.6c-8.8 0-16-7.2-16-16v-48.8h-358.4v48.8c0 8.8-7.2 16-16 16h-114.4c-8.8 0-16-7.2-16-16v-48.8h-81.6c-8.8 0-16-7.2-16-16v-829.6c0-8.8 7.2-16 16-16h520.8c8.8 0 16 7.2 16 16 0 8-7.2 15.2-16 15.2v0zM686.4 895.2h81.6v-97.6h-81.6v97.6zM181.6 895.2h81.6v-97.6h-81.6v97.6zM84.8 830.4h64.8v-48.8c0-8.8 7.2-16 16-16h114.4c8.8 0 16 7.2 16 16v48.8h358.4v-48.8c0-8.8 7.2-16 16-16h113.6c8.8 0 16 7.2 16 16v48.8h64.8v-130.4h-780v130.4z" />
<glyph unicode="&#xe955;" glyph-name="calendar-deal" d="M864.8 270.4l-91.2-130.4-64 52.8c-7.2 5.6-17.6 4.8-23.2-2.4s-4.8-17.6 2.4-23.2l77.6-64c3.2-2.4 6.4-4 10.4-4 0.8 0 1.6 0 2.4 0 4.8 0.8 8.8 3.2 11.2 6.4l100.8 145.6c4.8 7.2 3.2 17.6-4 22.4-7.2 5.6-17.6 4-22.4-3.2v0zM878.4 367.2v480c0 8.8-7.2 16-16 16h-81.6v48.8c0 8.8-7.2 16-16 16h-114.4c-8.8 0-16-7.2-16-16v-48.8h-358.4v48.8c0 8.8-7.2 16-16 16h-114.4c-8.8 0-16-7.2-16-16v-48.8h-81.6c-8.8 0-16-7.2-16-16v-829.6c0-8.8 7.2-16 16-16h620c32.8-20.8 71.2-32.8 112-32.8 116.8 0 211.2 95.2 211.2 211.2 0.8 80.8-45.6 152-112.8 187.2v0zM666.4 895.2h81.6v-97.6h-81.6v97.6zM162.4 895.2h81.6v-97.6h-81.6v97.6zM64.8 830.4h64.8v-48.8c0-8.8 7.2-16 16-16h113.6c8.8 0 16 7.2 16 16v48.8h358.4v-48.8c0-8.8 7.2-16 16-16h113.6c8.8 0 16 7.2 16 16v48.8h64.8v-130.4h-779.2v130.4zM64.8 32.8v635.2h780.8v-287.2c-3.2 0.8-6.4 1.6-9.6 2.4s-6.4 1.6-8.8 2.4c-2.4 0.8-5.6 0.8-8 1.6-4 0.8-8 1.6-12 1.6-2.4 0-4.8 0.8-6.4 0.8-6.4 0.8-12.8 0.8-19.2 0.8-5.6 0-11.2-0.8-16-0.8v196.8h-620v-472h433.6c0.8-1.6 0.8-2.4 1.6-4 1.6-4 2.4-8 4-12 0.8-2.4 1.6-4 3.2-6.4 1.6-4 4-8 5.6-12 0.8-1.6 1.6-3.2 3.2-4.8 2.4-4 4.8-8.8 8-12.8 0.8-1.6 2.4-3.2 3.2-4 3.2-4 5.6-8 8.8-12 1.6-1.6 2.4-2.4 4-4 2.4-3.2 4.8-5.6 8-8.8h-564zM688 369.6c-1.6-0.8-3.2-1.6-5.6-2.4-3.2-1.6-6.4-3.2-8.8-4.8s-4.8-3.2-8-4.8c-2.4-1.6-4.8-3.2-7.2-4.8s-5.6-4-8-6.4c-2.4-1.6-4-3.2-6.4-5.6-3.2-2.4-5.6-4.8-8-7.2-1.6-1.6-4-3.2-5.6-5.6-3.2-3.2-5.6-6.4-8.8-9.6-0.8-1.6-2.4-2.4-3.2-4v92.8h113.6v-22.4c0 0-0.8 0-0.8 0-15.2-3.2-29.6-8.8-43.2-15.2v0zM578.4 241.6c-0.8-1.6-0.8-4-1.6-5.6-1.6-4.8-2.4-9.6-4-14.4-0.8-4-0.8-7.2-1.6-11.2-0.8-3.2-0.8-6.4-1.6-9.6-0.8-7.2-0.8-14.4-0.8-21.6 0-5.6 0-12 0.8-17.6 0-0.8 0-2.4 0-3.2 0-2.4 0.8-4.8 0.8-8 0-1.6 0-2.4 0.8-4h-100v114.4h113.6c0 0 0-0.8 0-0.8-2.4-6.4-4.8-12.8-6.4-18.4v0zM178.4 260.8h113.6v-113.6h-113.6v113.6zM178.4 407.2h113.6v-113.6h-113.6v113.6zM732 440h-114.4v113.6h113.6v-113.6zM585.6 440h-114.4v113.6h113.6v-113.6zM585.6 293.6h-114.4v113.6h113.6v-113.6zM324.8 407.2h113.6v-113.6h-113.6v113.6zM438.4 440h-113.6v113.6h113.6v-113.6zM292 440h-113.6v113.6h113.6v-113.6zM324.8 260.8h113.6v-113.6h-113.6v113.6zM780.8 0.8c-36.8 0-71.2 11.2-99.2 30.4-5.6 4-11.2 8-16 12-1.6 1.6-3.2 3.2-4.8 4.8-3.2 3.2-6.4 5.6-9.6 8.8-1.6 1.6-4 4-5.6 6.4-2.4 3.2-4.8 6.4-8 9.6-1.6 2.4-3.2 4-4.8 6.4-4 5.6-7.2 10.4-10.4 16-0.8 1.6-1.6 2.4-1.6 4-2.4 4.8-4.8 9.6-6.4 14.4-0.8 2.4-1.6 4-2.4 6.4-1.6 4-3.2 8.8-4 12.8 0 0.8-0.8 1.6-0.8 3.2-1.6 7.2-3.2 14.4-4 21.6 0 0.8 0 0.8 0 1.6-0.8 7.2-1.6 14.4-1.6 21.6 0 6.4 0 12 0.8 18.4 0 0.8 0 0.8 0 1.6 0.8 5.6 1.6 11.2 2.4 16.8 0 0.8 0 0.8 0 1.6 1.6 5.6 2.4 10.4 4 16 0 0.8 0.8 1.6 0.8 1.6 1.6 4.8 3.2 10.4 5.6 15.2s4 9.6 6.4 13.6l1.6 2.4c0.8 0.8 1.6 2.4 2.4 3.2 3.2 4.8 5.6 9.6 8.8 13.6 0.8 0.8 1.6 2.4 2.4 3.2 3.2 4 6.4 7.2 9.6 11.2 0.8 0.8 2.4 2.4 3.2 4 3.2 3.2 6.4 6.4 10.4 9.6 1.6 0.8 2.4 2.4 4 3.2 4 3.2 8 6.4 12.8 9.6 0.8 0.8 1.6 0.8 2.4 1.6 21.6 14.4 45.6 24.8 72 28.8h0.8c9.6 1.6 19.2 2.4 29.6 2.4 6.4 0 12.8 0 19.2-0.8 0.8 0 1.6 0 3.2 0 5.6-0.8 10.4-1.6 16-2.4 0.8 0 1.6-0.8 1.6-0.8 5.6-1.6 11.2-2.4 16.8-4.8 0.8 0 0.8 0 0.8-0.8 5.6-1.6 11.2-4 16.8-6.4 61.6-28 104.8-90.4 104.8-162.4-1.6-99.2-81.6-179.2-180-179.2v0z" />
<glyph unicode="&#xe956;" glyph-name="google-plus-strock" d="M364 120c-187.2 0-332 143.2-332 328s144.8 328 332 328c93.6 0 171.2-28 224.8-80.8l13.6-12-116-116-12 12c-28 28-65.6 41.6-110.4 41.6-93.6 0-176-80.8-176-172.8s83.2-172.8 176-172.8c71.2 0 124 40 148.8 104h-169.6v155.2h335.2l1.6-13.6c3.2-20.8 4.8-46.4 4.8-72.8 0-22.4-1.6-44.8-4.8-65.6-22.4-162.4-145.6-262.4-316-262.4zM364 741.6c-166.4 0-297.6-129.6-297.6-293.6s131.2-293.6 296.8-293.6c155.2 0 260.8 86.4 283.2 232.8v0c3.2 19.2 4.8 40 4.8 60.8 0 17.6-1.6 36-3.2 52h-270.4v-86.4h177.6l-4.8-20.8c-20.8-91.2-95.2-152-188-152-112 0-208.8 95.2-208.8 207.2s96.8 207.2 210.4 207.2c48 0 89.6-13.6 120.8-40l67.2 67.2c-48.8 38.4-110.4 59.2-188 59.2zM904 334.4h-103.2v88h-88v103.2h88v88h103.2v-88h88v-103.2h-88v-88zM830.4 364h44v88h88v44h-88v88h-44v-88h-88v-44h88v-88z" />
<glyph unicode="&#xe957;" glyph-name="twitter-strock" d="M964 745.6c-8 5.6-17.6 4.8-24.8-0.8-4.8-4-12.8-7.2-21.6-10.4 28.8 36 29.6 60 28.8 65.6-0.8 7.2-5.6 14.4-12 17.6-7.2 3.2-15.2 2.4-21.6-1.6-39.2-28-79.2-34.4-101.6-35.2-37.6 35.2-86.4 53.6-137.6 53.6-111.2 0-202.4-90.4-202.4-202.4 0-8 0.8-16 1.6-24-186.4 5.6-336.8 181.6-338.4 183.2-4.8 5.6-11.2 8-18.4 7.2s-12.8-4.8-16.8-10.4c-47.2-80.8-28-157.6 4.8-211.2-6.4 3.2-13.6 3.2-19.2 0-7.2-3.2-12-10.4-12-18.4-1.6-84.8 37.6-136 76.8-165.6-3.2-0.8-5.6-3.2-8-5.6-4.8-5.6-7.2-13.6-4.8-20.8 27.2-88 91.2-120.8 136-132.8-51.2-36-115.2-44.8-163.2-44.8-31.2 0-52 4-52.8 4-9.6 1.6-19.2-3.2-23.2-12.8-4-8.8-0.8-19.2 6.4-25.6 96.8-72.8 214.4-88 296-88 64 0 108.8 9.6 111.2 9.6 417.6 97.6 432.8 472 432.8 540 78.4 72 90.4 100 92.8 107.2 2.4 8-1.6 17.6-8.8 22.4v0zM844 640.8c-4.8-4-7.2-10.4-7.2-17.6 0-4 23.2-407.2-399.2-505.6-0.8 0-42.4-8.8-101.6-8.8-55.2 0-128.8 8-198.4 38.4 64 4 142.4 24 199.2 86.4 5.6 6.4 7.2 15.2 3.2 23.2-3.2 8-11.2 12.8-20 12.8-4 0-88 0.8-129.6 79.2 19.2-0.8 36.8 2.4 50.4 8 8.8 4 13.6 12.8 12 21.6-0.8 8.8-8 16.8-16.8 18.4-4.8 0.8-101.6 23.2-118.4 124.8 15.2-5.6 33.6-9.6 51.2-7.2 8 1.6 15.2 7.2 17.6 15.2s-0.8 16.8-6.4 22.4c-4 4-96 84-56 188.8 53.6-54.4 200-183.2 376-172.8 6.4 0 12 3.2 16 8.8 4 4.8 4.8 12 3.2 17.6-3.2 12.8-4.8 26.4-4.8 40 0 88 71.2 159.2 159.2 159.2 43.2 0 83.2-16.8 113.6-47.2 4-4 8.8-6.4 15.2-6.4h3.2c16 0 40 1.6 68.8 11.2-8.8-9.6-20.8-20-36-32-7.2-5.6-10.4-16-6.4-24.8 3.2-8.8 12-14.4 21.6-13.6 3.2 0 18.4 1.6 37.6 4.8-12.8-12.8-28-28-47.2-44.8v0z" />
<glyph unicode="&#xe958;" glyph-name="phone" d="M851.2 787.2c-90.4 90.4-211.2 140.8-339.2 140.8s-248.8-49.6-339.2-140.8c-91.2-90.4-140.8-211.2-140.8-339.2s49.6-248.8 140.8-339.2c90.4-90.4 211.2-140.8 339.2-140.8 74.4 0 142.4 13.6 196 40 51.2 24.8 88 60 104.8 99.2 19.2 47.2 8.8 96-30.4 135.2l-1.6 1.6c0.8 0.8 1.6 1.6 1.6 1.6 28 28.8 28 67.2 0 95.2l-68 68c-13.6 13.6-29.6 21.6-47.2 21.6-16.8 0-33.6-7.2-47.2-20.8l-35.2-35.2c-1.6 0.8-3.2 1.6-4.8 2.4-4 2.4-8 4-12 6.4-36 23.2-68.8 52.8-100 91.2-13.6 17.6-23.2 32-30.4 47.2 8.8 8 16.8 16.8 25.6 24.8 3.2 3.2 7.2 7.2 10.4 10.4 28.8 28.8 28.8 66.4 0 95.2l-33.6 33.6c-4 4-8 8-11.2 12-7.2 8-15.2 16-23.2 23.2-13.6 13.6-29.6 20-46.4 20s-32.8-7.2-47.2-20v0l-42.4-42.4c-16.8-16.8-27.2-37.6-28.8-62.4-3.2-37.6 8-72 16-95.2 20-55.2 50.4-105.6 96-160 55.2-65.6 120.8-117.6 196.8-154.4 28.8-13.6 68-30.4 112-32.8 2.4 0 5.6 0 8 0 30.4 0 56.8 11.2 76.8 32.8l0.8 0.8c0.8 0.8 1.6 1.6 2.4 2.4l0.8-0.8c25.6-25.6 32-54.4 20-83.2-22.4-53.6-111.2-109.6-256.8-109.6-240-0.8-434.4 193.6-434.4 432s194.4 432.8 432.8 432.8c238.4 0 432.8-193.6 432.8-432.8 0-39.2-5.6-78.4-16-115.2-3.2-12.8 4-25.6 16.8-29.6 12.8-3.2 25.6 4 29.6 16.8 11.2 41.6 17.6 84.8 17.6 128-0.8 128-51.2 248.8-141.6 339.2v0zM709.6 238.4c-11.2-12-24-17.6-41.6-17.6-1.6 0-3.2 0-5.6 0-35.2 2.4-68.8 16-94.4 28.8-69.6 33.6-130.4 80.8-180.8 141.6-41.6 50.4-69.6 96.8-88 146.4-11.2 30.4-15.2 52.8-13.6 74.4 0.8 12.8 5.6 23.2 15.2 32l42.4 42.4c3.2 3.2 8.8 7.2 14.4 7.2s10.4-3.2 13.6-6.4l0.8-0.8c7.2-7.2 14.4-14.4 22.4-21.6 4-4 8-8 12-12l33.6-33.6c10.4-10.4 10.4-18.4 0-28.8l-10.4-10.4c-10.4-10.4-20-20.8-31.2-30.4 0 0-0.8-0.8-0.8-0.8-15.2-15.2-9.6-30.4-8-35.2 0-0.8 0-0.8 0.8-1.6 8.8-21.6 21.6-42.4 40.8-67.2v0c34.4-43.2 71.2-76 112-101.6 5.6-3.2 10.4-6.4 16-8.8 4-2.4 8-4 12-6.4 0.8 0 1.6-0.8 2.4-0.8 4.8-2.4 10.4-4 15.2-4 8.8 0 16.8 3.2 24 10.4l42.4 42.4c3.2 3.2 8 7.2 13.6 7.2 4.8 0 9.6-4 12.8-7.2l68.8-68.8c9.6-9.6 9.6-18.4 0-28.8v0c-4.8-4.8-9.6-9.6-15.2-15.2-9.6-7.2-17.6-15.2-25.6-24.8v0z" />
<glyph unicode="&#xe959;" glyph-name="question" d="M393.6 644c-4-4-6.4-6.4-8-8.8 4 4 8 8.8 8 8.8v0zM560.8 612.8c12-15.2 18.4-33.6 18.4-54.4 0-15.2-4-29.6-12.8-43.2-4.8-8-10.4-15.2-18.4-22.4l-25.6-24.8c-24.8-24-40.8-45.6-48-64-7.2-19.2-10.4-44-10.4-74.4h56.8c0 27.2 3.2 47.2 8.8 60.8s19.2 30.4 40 50.4c28 27.2 47.2 48 56 62.4s13.6 32 13.6 55.2c0 37.6-12.8 68-37.6 92s-58.4 36-100.8 36c-45.6 0-80.8-14.4-107.2-41.6-26.4-28-39.2-64.8-39.2-111.2h56.8c0.8 28 5.6 48.8 12.8 63.2 13.6 26.4 38.4 40 73.6 40 29.6-0.8 50.4-8.8 63.2-24v0zM992 448c0 264.8-215.2 480-480 480s-480-215.2-480-480c0-264.8 215.2-480 480-480s480 215.2 480 480v0zM76 448c0 240.8 195.2 436 436 436s436-195.2 436-436-195.2-436-436-436-436 195.2-436 436v0zM462.4 276.8h64v-66.4h-64v66.4z" />
<glyph unicode="&#xe95a;" glyph-name="clock" d="M512-32c265.6 0 480 215.2 480 480 0 265.6-215.2 480-480 480s-480-214.4-480-480c0-264.8 214.4-480 480-480v0zM512 860.8c228 0 412.8-184.8 412.8-412.8s-184.8-412.8-412.8-412.8c-228 0-412.8 185.6-412.8 412.8 0 228 184.8 412.8 412.8 412.8v0zM489.6 392h232.8c19.2 0 33.6 15.2 33.6 34.4s-15.2 34.4-33.6 34.4h-198.4v289.6c0 19.2-15.2 34.4-33.6 34.4-19.2 0-34.4-15.2-34.4-34.4v-324.8c0-19.2 14.4-33.6 33.6-33.6v0z" />
<glyph unicode="&#xe95b;" glyph-name="share" d="M792.8 311.2c-55.2 0-104.8-26.4-136-67.2l-264 147.2c6.4 17.6 9.6 36.8 9.6 56.8s-3.2 39.2-9.6 56.8l263.2 147.2c31.2-40.8 80.8-67.2 136-67.2 94.4 0 172 76.8 172 172s-76.8 171.2-171.2 171.2-172-76.8-172-172c0-20 3.2-39.2 9.6-56.8l-263.2-146.4c-31.2 40.8-80.8 67.2-136 67.2-94.4 0-172-76.8-172-172s76.8-172 172-172c55.2 0 104.8 26.4 136 67.2l263.2-147.2c-6.4-17.6-9.6-37.6-9.6-57.6 0-94.4 76.8-172 172-172s172 76.8 172 172-77.6 172.8-172 172.8v0zM792.8 873.6c64.8 0 117.6-52.8 117.6-117.6s-52.8-117.6-117.6-117.6c-64.8 0-117.6 52.8-117.6 117.6s52.8 117.6 117.6 117.6v0zM231.2 330.4c-64.8 0-117.6 52.8-117.6 117.6s52.8 117.6 117.6 117.6c64.8 0 117.6-52.8 117.6-117.6s-52.8-117.6-117.6-117.6v0zM792.8 22.4c-64.8 0-117.6 52.8-117.6 117.6s52.8 117.6 117.6 117.6c64.8 0 117.6-52.8 117.6-117.6s-52.8-117.6-117.6-117.6v0z" />
<glyph unicode="&#xe95c;" glyph-name="time-back" d="M990.4 516.8c-3.2 7.2-10.4 11.2-18.4 11.2h-60c-38.4 207.2-219.2 364-436 364-244.8 0-444-199.2-444-444s199.2-444 444-444c157.6 0 304.8 84.8 384 221.6 11.2 19.2 4.8 44-14.4 55.2s-44 4.8-55.2-14.4c-64.8-112-185.6-181.6-314.4-181.6-200 0-363.2 163.2-363.2 363.2s163.2 363.2 363.2 363.2c172.8 0 316.8-120.8 353.6-282.4h-59.2c-8 0-15.2-4.8-18.4-12s-2.4-15.2 3.2-21.6l100.8-120.8c4-4.8 9.6-7.2 15.2-7.2s12 2.4 15.2 7.2l100.8 121.6c4.8 5.6 6.4 13.6 3.2 20.8v0zM476 791.2c-22.4 0-40-18.4-40-40v-244.8c-18.4-12.8-30.4-33.6-30.4-57.6 0-39.2 32-70.4 70.4-70.4 10.4 0 20.8 2.4 29.6 6.4l140-80.8c6.4-4 13.6-5.6 20-5.6 13.6 0 27.2 7.2 35.2 20 11.2 19.2 4.8 44-14.4 55.2l-140.8 80.8c-1.6 21.6-12.8 40-29.6 52v244c0 22.4-17.6 40.8-40 40.8v0zM476 417.6c-16.8 0-30.4 13.6-30.4 30.4s13.6 30.4 30.4 30.4c16.8 0 30.4-13.6 30.4-30.4s-13.6-30.4-30.4-30.4v0z" />
<glyph unicode="&#xe95d;" glyph-name="Logo-fill" d="M948 309.6c-89.6-43.2-103.2-148.8-343.2-194.4-172.8-32.8-357.6 12.8-363.2 170.4 148 130.4 500.8 106.4 706.4 152-32 245.6-165.6 438.4-383.2 482.4-269.6 55.2-444.8-176-481.6-397.6-47.2-279.2 116.8-497.6 340.8-541.6 197.6-40 540.8-0.8 524 328.8zM304 672c50.4 80 168 141.6 294.4 82.4 91.2-42.4 151.2-128.8 170.4-248-168-32-677.6-170.4-464.8 165.6z" />
<glyph unicode="&#xe95e;" glyph-name="woman" d="M815.2 381.6l-72.8 223.2c-36.8 110.4-169.6 105.6-224 105.6h-64.8c-139.2-3.2-172.8-105.6-172.8-105.6l-72.8-223.2c0 0-20.8-44 18.4-59.2 29.6-12 44 8 53.6 33.6l82.4 231.2h30.4l-120-372.8h127.2v-191.2c0-30.4 16.8-55.2 47.2-54.4 31.2 0 47.2 24.8 47.2 55.2v189.6h34.4v-190.4c0-30.4 16.8-55.2 47.2-55.2s47.2 24.8 47.2 54.4v192h128.8l-121.6 373.6h30.4l82.4-231.2c9.6-25.6 24-45.6 53.6-33.6 39.2 14.4 18.4 58.4 18.4 58.4v0zM606.4 833.6c0-52-42.4-93.6-93.6-93.6-52 0-94.4 42.4-94.4 93.6-0.8 52 41.6 94.4 93.6 94.4s94.4-42.4 94.4-94.4v0z" />
<glyph unicode="&#xe95f;" glyph-name="man" d="M516.8 736c52.8 0 95.2 43.2 95.2 96.8-0.8 52.8-44 95.2-96.8 95.2s-96-43.2-95.2-96.8c0-52.8 44-95.2 96.8-95.2v0zM740.8 366.4v236c-9.6 105.6-133.6 101.6-133.6 101.6h-192c-137.6-3.2-132-104-132-104v-235.2c0-22.4 18.4-40.8 40.8-40.8s37.6 18.4 37.6 40.8v217.6h36.8v-560.8c0-30.4 19.2-54.4 49.6-54.4s44 24.8 44 55.2v317.6h44.8v-316.8l0.8-0.8c0.8-29.6 14.4-53.6 44-53.6 30.4 0 46.4 24.8 46.4 54.4v562.4h33.6v-219.2c0-22.4 15.2-40.8 37.6-40 24-0.8 41.6 17.6 41.6 40v0z" />
<glyph unicode="&#xe960;" glyph-name="list-view" d="M32 928h590.4v-222.4h-590.4v222.4zM32 559.2h590.4v-222.4h-590.4v222.4zM32 190.4h590.4v-222.4h-590.4v222.4zM769.6 928h222.4v-222.4h-222.4v222.4zM769.6 559.2h222.4v-222.4h-222.4v222.4zM769.6 190.4h222.4v-222.4h-222.4v222.4z" />
<glyph unicode="&#xe961;" glyph-name="tile-view" d="M32 928h222.4v-222.4h-222.4v222.4zM32 559.2h222.4v-222.4h-222.4v222.4zM32 190.4h222.4v-222.4h-222.4v222.4zM400.8 928h222.4v-222.4h-222.4v222.4zM400.8 559.2h222.4v-222.4h-222.4v222.4zM400.8 190.4h222.4v-222.4h-222.4v222.4zM769.6 928h222.4v-222.4h-222.4v222.4zM769.6 559.2h222.4v-222.4h-222.4v222.4zM769.6 190.4h222.4v-222.4h-222.4v222.4z" />
</font>
</defs>
</svg>
